<svg width="40" height="26" viewBox="0 0 40 26" fill="none" xmlns="http://www.w3.org/2000/svg">
<mask id="path-1-inside-1_889_1910" fill="white">
<path d="M0 4C0 1.79086 1.79086 0 4 0H36C38.2091 0 40 1.79086 40 4V22C40 24.2091 38.2091 26 36 26H4C1.79086 26 0 24.2091 0 22V4Z"/>
</mask>
<path d="M0 4C0 1.79086 1.79086 0 4 0H36C38.2091 0 40 1.79086 40 4V22C40 24.2091 38.2091 26 36 26H4C1.79086 26 0 24.2091 0 22V4Z" fill="#F4F8FD"/>
<path d="M4 26V25.5C3.42688 25.5 2.88729 25.3626 2.411 25.1195L2.18364 25.5648L1.95629 26.0101C2.57011 26.3235 3.26517 26.5 4 26.5V26ZM0.435221 23.8164L0.88054 23.589C0.637371 23.1127 0.5 22.5731 0.5 22H0H-0.5C-0.5 22.7348 -0.323484 23.4299 -0.0100985 24.0437L0.435221 23.8164ZM0 22H0.5V20.65H0H-0.5V22H0ZM0 18.85H0.5V16.15H0H-0.5V18.85H0ZM0 14.35H0.5V11.65H0H-0.5V14.35H0ZM0 9.85H0.5V7.15H0H-0.5V9.85H0ZM0 5.35H0.5V4H0H-0.5V5.35H0ZM0 4H0.5C0.5 3.42688 0.637371 2.88729 0.88054 2.411L0.435221 2.18364L-0.0100985 1.95629C-0.323484 2.57011 -0.5 3.26517 -0.5 4H0ZM2.18364 0.43522L2.411 0.880539C2.88729 0.637371 3.42688 0.5 4 0.5V0V-0.5C3.26517 -0.5 2.57011 -0.323484 1.95629 -0.0100988L2.18364 0.43522ZM4 0V0.5H5.6V0V-0.5H4V0ZM7.73333 0V0.5H10.9333V0V-0.5H7.73333V0ZM13.0667 0V0.5H16.2667V0V-0.5H13.0667V0ZM18.4 0V0.5H21.6V0V-0.5H18.4V0ZM23.7333 0V0.5H26.9333V0V-0.5H23.7333V0ZM29.0667 0V0.5H32.2667V0V-0.5H29.0667V0ZM34.4 0V0.5H36V0V-0.5H34.4V0ZM36 0V0.5C36.5731 0.5 37.1127 0.637371 37.589 0.88054L37.8164 0.435221L38.0437 -0.0100985C37.4299 -0.323484 36.7348 -0.5 36 -0.5V0ZM39.5648 2.18364L39.1195 2.411C39.3626 2.88729 39.5 3.42688 39.5 4H40H40.5C40.5 3.26517 40.3235 2.57011 40.0101 1.95629L39.5648 2.18364ZM40 4H39.5V5.35H40H40.5V4H40ZM40 7.15H39.5V9.85H40H40.5V7.15H40ZM40 11.65H39.5V14.35H40H40.5V11.65H40ZM40 16.15H39.5V18.85H40H40.5V16.15H40ZM40 20.65H39.5V22H40H40.5V20.65H40ZM40 22H39.5C39.5 22.5731 39.3626 23.1127 39.1195 23.589L39.5648 23.8164L40.0101 24.0437C40.3235 23.4299 40.5 22.7348 40.5 22H40ZM37.8164 25.5648L37.589 25.1195C37.1127 25.3626 36.5731 25.5 36 25.5V26V26.5C36.7348 26.5 37.4299 26.3235 38.0437 26.0101L37.8164 25.5648ZM36 26V25.5H34.4V26V26.5H36V26ZM32.2667 26V25.5H29.0667V26V26.5H32.2667V26ZM26.9333 26V25.5H23.7333V26V26.5H26.9333V26ZM21.6 26V25.5H18.4V26V26.5H21.6V26ZM16.2667 26V25.5H13.0667V26V26.5H16.2667V26ZM10.9333 26V25.5H7.73334V26V26.5H10.9333V26ZM5.6 26V25.5H4V26V26.5H5.6V26ZM4 26V25C3.50773 25 3.04588 24.8822 2.63836 24.6741L2.18364 25.5648L1.72893 26.4554C2.41152 26.8039 3.18431 27 4 27V26ZM0.435221 23.8164L1.32586 23.3616C1.1178 22.9541 1 22.4923 1 22H0H-1C-1 22.8157 -0.803912 23.5885 -0.455418 24.2711L0.435221 23.8164ZM0 22H1V20.65H0H-1V22H0ZM0 18.85H1V16.15H0H-1V18.85H0ZM0 14.35H1V11.65H0H-1V14.35H0ZM0 9.85H1V7.15H0H-1V9.85H0ZM0 5.35H1V4H0H-1V5.35H0ZM0 4H1C1 3.50773 1.1178 3.04588 1.32586 2.63835L0.435221 2.18364L-0.455418 1.72893C-0.803912 2.41152 -1 3.18431 -1 4H0ZM2.18364 0.43522L2.63836 1.32586C3.04588 1.1178 3.50773 1 4 1V0V-1C3.18431 -1 2.41152 -0.803912 1.72893 -0.455418L2.18364 0.43522ZM4 0V1H5.6V0V-1H4V0ZM7.73333 0V1H10.9333V0V-1H7.73333V0ZM13.0667 0V1H16.2667V0V-1H13.0667V0ZM18.4 0V1H21.6V0V-1H18.4V0ZM23.7333 0V1H26.9333V0V-1H23.7333V0ZM29.0667 0V1H32.2667V0V-1H29.0667V0ZM34.4 0V1H36V0V-1H34.4V0ZM36 0V1C36.4923 1 36.9541 1.1178 37.3616 1.32586L37.8164 0.435221L38.2711 -0.455418C37.5885 -0.803912 36.8157 -1 36 -1V0ZM39.5648 2.18364L38.6741 2.63836C38.8822 3.04588 39 3.50773 39 4H40H41C41 3.18431 40.8039 2.41152 40.4554 1.72893L39.5648 2.18364ZM40 4H39V5.35H40H41V4H40ZM40 7.15H39V9.85H40H41V7.15H40ZM40 11.65H39V14.35H40H41V11.65H40ZM40 16.15H39V18.85H40H41V16.15H40ZM40 20.65H39V22H40H41V20.65H40ZM40 22H39C39 22.4923 38.8822 22.9541 38.6741 23.3616L39.5648 23.8164L40.4554 24.2711C40.8039 23.5885 41 22.8157 41 22H40ZM37.8164 25.5648L37.3616 24.6741C36.9541 24.8822 36.4923 25 36 25V26V27C36.8157 27 37.5885 26.8039 38.2711 26.4554L37.8164 25.5648ZM36 26V25H34.4V26V27H36V26ZM32.2667 26V25H29.0667V26V27H32.2667V26ZM26.9333 26V25H23.7333V26V27H26.9333V26ZM21.6 26V25H18.4V26V27H21.6V26ZM16.2667 26V25H13.0667V26V27H16.2667V26ZM10.9333 26V25H7.73334V26V27H10.9333V26ZM5.6 26V25H4V26V27H5.6V26Z" fill="#378ADD" mask="url(#path-1-inside-1_889_1910)"/>
<path fill-rule="evenodd" clip-rule="evenodd" d="M20 9.5C20.1857 9.5 20.3637 9.57375 20.495 9.70503C20.6262 9.8363 20.7 10.0143 20.7 10.2V12.3H22.8C22.9857 12.3 23.1637 12.3737 23.295 12.505C23.4262 12.6363 23.5 12.8143 23.5 13C23.5 13.1857 23.4262 13.3637 23.295 13.495C23.1637 13.6262 22.9857 13.7 22.8 13.7H20.7V15.8C20.7 15.9857 20.6262 16.1637 20.495 16.295C20.3637 16.4262 20.1857 16.5 20 16.5C19.8143 16.5 19.6363 16.4262 19.505 16.295C19.3737 16.1637 19.3 15.9857 19.3 15.8V13.7H17.2C17.0143 13.7 16.8363 13.6262 16.705 13.495C16.5737 13.3637 16.5 13.1857 16.5 13C16.5 12.8143 16.5737 12.6363 16.705 12.505C16.8363 12.3737 17.0143 12.3 17.2 12.3H19.3V10.2C19.3 10.0143 19.3737 9.8363 19.505 9.70503C19.6363 9.57375 19.8143 9.5 20 9.5Z" fill="#2070C8"/>
</svg>
