<svg width="36" height="36" viewBox="0 0 36 36" fill="none" xmlns="http://www.w3.org/2000/svg">
<rect width="36" height="36" rx="9" fill="#F5F3FF"/>
<path d="M17.1 13.3236C16.1188 12.8459 15.0414 12.5984 13.95 12.6C12.8205 12.6 11.7513 12.861 10.8 13.3236V22.3236C11.7813 21.8459 12.8587 21.5984 13.95 21.6C15.4521 21.6 16.8462 22.059 18 22.8465C19.1935 22.0322 20.6053 21.5977 22.05 21.6C23.1795 21.6 24.2487 21.861 25.2 22.3236V13.3236C24.2188 12.8459 23.1414 12.5984 22.05 12.6C20.9205 12.6 19.8513 12.861 18.9 13.3236V19.8C18.9 20.0387 18.8052 20.2676 18.6364 20.4364C18.4677 20.6052 18.2387 20.7 18 20.7C17.7614 20.7 17.5324 20.6052 17.3637 20.4364C17.1949 20.2676 17.1 20.0387 17.1 19.8V13.3236Z" fill="#7C3AED"/>
</svg>
