<svg width="20" height="20" viewBox="0 0 20 20" fill="none" xmlns="http://www.w3.org/2000/svg">
<g clip-path="url(#clip0_152_803)">
<path d="M10 20C4.48583 20 0 15.5142 0 10C0 4.48583 4.48583 0 10 0C15.5142 0 20 4.48583 20 10C20 15.5142 15.5142 20 10 20ZM10 2.5C5.865 2.5 2.5 5.86417 2.5 10C2.5 14.1358 5.865 17.5 10 17.5C14.135 17.5 17.5 14.1358 17.5 10C17.5 5.86417 14.1358 2.5 10 2.5ZM10.8333 10.3008L13.5475 8.71583L12.2858 6.5575L8.33333 8.86583V15H10.8333V10.3008Z" fill="#0077B6"/>
</g>
<rect x="0.5" y="0.5" width="19" height="19" rx="9.5" stroke="#0077B6"/>
<defs>
<clipPath id="clip0_152_803">
<rect width="20" height="20" rx="10" fill="white"/>
</clipPath>
</defs>
</svg>
