<svg width="12" height="21" viewBox="0 0 12 21" fill="none" xmlns="http://www.w3.org/2000/svg">
<path fill-rule="evenodd" clip-rule="evenodd" d="M9.5372 20.5825L0.292206 11.4455C0.105305 11.2622 0 11.0113 0 10.7495C0 10.4877 0.105305 10.2369 0.292206 10.0535L9.5372 0.916519C10.1037 0.359863 11.0117 0.359863 11.5782 0.916519C11.8482 1.18246 12.0001 1.54556 12.0001 1.92451C12.0001 2.30345 11.8482 2.66657 11.5782 2.93251L3.6692 10.7495L11.5782 18.5645C11.848 18.8308 11.9998 19.194 11.9998 19.573C11.9998 19.952 11.848 20.3153 11.5782 20.5815C11.0117 21.1382 10.1037 21.1382 9.53721 20.5815" fill="white"/>
</svg>
