<svg width="24" height="16" viewBox="0 0 24 16" fill="none" xmlns="http://www.w3.org/2000/svg">
<path d="M23.8215 7.38806C22.8553 5.82252 21.4402 4.43487 19.6764 3.32343L22.7085 1.058L21.2934 0L18.0003 2.4582C16.1776 1.67047 14.1057 1.26205 12.0002 1.27543C4.49999 1.27543 1.0569 5.95349 0.178876 7.38806C0.0610111 7.58031 0 7.78929 0 8.00075C0 8.21221 0.0610111 8.42118 0.178876 8.61343C1.14504 10.179 2.56016 11.5666 4.32398 12.6781L1.2929 14.9435L2.70694 16L6.00003 13.5418C7.82271 14.3295 9.89461 14.7379 12.0002 14.7246C19.5004 14.7246 22.9435 10.0465 23.8215 8.61194C23.9391 8.4199 24 8.21119 24 8C24 7.78881 23.9391 7.5801 23.8215 7.38806ZM1.99992 8.00822C2.74994 6.77912 5.69302 2.76978 12.0002 2.76978C13.5698 2.76292 15.1189 3.03652 16.5183 3.56776L14.7532 4.88652C13.7932 4.41027 12.6421 4.19688 11.4954 4.28254C10.3487 4.3682 9.27697 4.74765 8.46209 5.3565C7.64721 5.96534 7.13935 6.76608 7.0247 7.62285C6.91004 8.47962 7.19566 9.33963 7.83307 10.057L5.75402 11.6103C4.15435 10.6371 2.87082 9.40549 1.99992 8.00822ZM15.0003 8C15.0003 8.59449 14.6842 9.16463 14.1216 9.585C13.5589 10.0054 12.7958 10.2415 12.0002 10.2415C11.5547 10.2402 11.1154 10.1636 10.7151 10.0174L14.7002 7.03988C14.896 7.3389 14.9985 7.66714 15.0003 8ZM9.0001 8C9.0001 7.40551 9.31618 6.83537 9.8788 6.415C10.4414 5.99463 11.2045 5.75848 12.0002 5.75848C12.4457 5.75976 12.885 5.8364 13.2852 5.98263L9.30011 8.96012C9.10439 8.6611 9.00183 8.33286 9.0001 8ZM12.0002 13.2302C10.4305 13.2371 8.88145 12.9635 7.48206 12.4322L9.24711 11.1135C10.2072 11.5897 11.3583 11.8031 12.505 11.7175C13.6517 11.6318 14.7234 11.2523 15.5383 10.6435C16.3532 10.0347 16.861 9.23391 16.9757 8.37715C17.0903 7.52038 16.8047 6.66037 16.1673 5.94303L18.2453 4.3904C19.8482 5.36457 21.1324 6.59909 22.0004 8C21.2364 9.23807 18.2923 13.2302 12.0002 13.2302Z" fill="#C6CBD4"/>
</svg>
