<svg width="22" height="17" viewBox="0 0 22 17" fill="none" xmlns="http://www.w3.org/2000/svg">
<path fill-rule="evenodd" clip-rule="evenodd" d="M14.5641 4.72939H19.3985V15.1875H2.82145V4.72939H7.65685L8.61371 2.40239H13.6161L14.5641 4.72939ZM13.8342 0.662509H8.61269C7.81592 0.662182 7.10256 1.11233 6.82279 1.79199L6.33158 2.98682H2.82145C1.7653 2.98732 0.909231 3.7672 0.908691 4.72939V15.1875C0.909231 16.1496 1.76524 16.9295 2.82139 16.93H19.4025C20.4586 16.9295 21.3146 16.1497 21.3152 15.1875V4.72939C21.313 3.76821 20.4574 2.98998 19.4024 2.98951H15.8953L15.3255 1.60942C15.0963 1.03958 14.5003 0.661198 13.8342 0.662509ZM11.1119 14.3157C13.753 14.3142 15.8937 12.3641 15.8953 9.95798C15.8937 7.55194 13.7531 5.60175 11.1121 5.60022C8.4713 5.60216 6.33122 7.55219 6.32961 9.95798C6.33116 12.3637 8.47118 14.3137 11.1119 14.3157H11.1119ZM11.1119 7.34368C12.6959 7.34566 13.9794 8.51497 13.9816 9.95798C13.9795 11.4009 12.696 12.5703 11.1121 12.5723C9.52806 12.5703 8.24453 11.401 8.24237 9.95798C8.24447 8.51504 9.52794 7.3457 11.1119 7.34368H11.1119Z" fill="#777777"/>
</svg>
