<svg width="40" height="40" viewBox="0 0 40 40" fill="none" xmlns="http://www.w3.org/2000/svg">
<rect width="40" height="40" rx="20" fill="#0057FF"/>
<path d="M15.0417 8.91667C15.0417 8.6846 14.9495 8.46204 14.7854 8.29795C14.6213 8.13386 14.3987 8.04167 14.1667 8.04167C13.9346 8.04167 13.712 8.13386 13.548 8.29795C13.3839 8.46204 13.2917 8.6846 13.2917 8.91667V10.76C11.6117 10.8942 10.5103 11.2232 9.70067 12.034C8.88984 12.8437 8.56084 13.9462 8.42551 15.625H31.5745C31.4392 13.945 31.1102 12.8437 30.2993 12.034C29.4897 11.2232 28.3872 10.8942 26.7083 10.7588V8.91667C26.7083 8.6846 26.6162 8.46204 26.4521 8.29795C26.288 8.13386 26.0654 8.04167 25.8333 8.04167C25.6013 8.04167 25.3787 8.13386 25.2146 8.29795C25.0505 8.46204 24.9583 8.6846 24.9583 8.91667V10.6818C24.1825 10.6667 23.3122 10.6667 22.3333 10.6667H17.6667C16.6878 10.6667 15.8175 10.6667 15.0417 10.6818V8.91667Z" fill="white"/>
<path fill-rule="evenodd" clip-rule="evenodd" d="M8.33333 20C8.33333 19.0212 8.33333 18.1508 8.34849 17.375H31.6515C31.6667 18.1508 31.6667 19.0212 31.6667 20V22.3333C31.6667 26.7328 31.6667 28.9332 30.2993 30.2993C28.9332 31.6667 26.7328 31.6667 22.3333 31.6667H17.6667C13.2672 31.6667 11.0668 31.6667 9.70066 30.2993C8.33333 28.9332 8.33333 26.7328 8.33333 22.3333V20ZM25.8333 22.3333C26.1427 22.3333 26.4395 22.2104 26.6583 21.9916C26.8771 21.7728 27 21.4761 27 21.1667C27 20.8572 26.8771 20.5605 26.6583 20.3417C26.4395 20.1229 26.1427 20 25.8333 20C25.5239 20 25.2272 20.1229 25.0084 20.3417C24.7896 20.5605 24.6667 20.8572 24.6667 21.1667C24.6667 21.4761 24.7896 21.7728 25.0084 21.9916C25.2272 22.2104 25.5239 22.3333 25.8333 22.3333ZM25.8333 27C26.1427 27 26.4395 26.8771 26.6583 26.6583C26.8771 26.4395 27 26.1428 27 25.8333C27 25.5239 26.8771 25.2272 26.6583 25.0084C26.4395 24.7896 26.1427 24.6667 25.8333 24.6667C25.5239 24.6667 25.2272 24.7896 25.0084 25.0084C24.7896 25.2272 24.6667 25.5239 24.6667 25.8333C24.6667 26.1428 24.7896 26.4395 25.0084 26.6583C25.2272 26.8771 25.5239 27 25.8333 27ZM21.1667 21.1667C21.1667 21.4761 21.0437 21.7728 20.825 21.9916C20.6062 22.2104 20.3094 22.3333 20 22.3333C19.6906 22.3333 19.3938 22.2104 19.175 21.9916C18.9562 21.7728 18.8333 21.4761 18.8333 21.1667C18.8333 20.8572 18.9562 20.5605 19.175 20.3417C19.3938 20.1229 19.6906 20 20 20C20.3094 20 20.6062 20.1229 20.825 20.3417C21.0437 20.5605 21.1667 20.8572 21.1667 21.1667ZM21.1667 25.8333C21.1667 26.1428 21.0437 26.4395 20.825 26.6583C20.6062 26.8771 20.3094 27 20 27C19.6906 27 19.3938 26.8771 19.175 26.6583C18.9562 26.4395 18.8333 26.1428 18.8333 25.8333C18.8333 25.5239 18.9562 25.2272 19.175 25.0084C19.3938 24.7896 19.6906 24.6667 20 24.6667C20.3094 24.6667 20.6062 24.7896 20.825 25.0084C21.0437 25.2272 21.1667 25.5239 21.1667 25.8333ZM14.1667 22.3333C14.4761 22.3333 14.7728 22.2104 14.9916 21.9916C15.2104 21.7728 15.3333 21.4761 15.3333 21.1667C15.3333 20.8572 15.2104 20.5605 14.9916 20.3417C14.7728 20.1229 14.4761 20 14.1667 20C13.8572 20 13.5605 20.1229 13.3417 20.3417C13.1229 20.5605 13 20.8572 13 21.1667C13 21.4761 13.1229 21.7728 13.3417 21.9916C13.5605 22.2104 13.8572 22.3333 14.1667 22.3333ZM14.1667 27C14.4761 27 14.7728 26.8771 14.9916 26.6583C15.2104 26.4395 15.3333 26.1428 15.3333 25.8333C15.3333 25.5239 15.2104 25.2272 14.9916 25.0084C14.7728 24.7896 14.4761 24.6667 14.1667 24.6667C13.8572 24.6667 13.5605 24.7896 13.3417 25.0084C13.1229 25.2272 13 25.5239 13 25.8333C13 26.1428 13.1229 26.4395 13.3417 26.6583C13.5605 26.8771 13.8572 27 14.1667 27Z" fill="white"/>
</svg>
