<svg width="40" height="40" viewBox="0 0 40 40" fill="none" xmlns="http://www.w3.org/2000/svg">
<rect width="40" height="40" rx="20" fill="#0057FF"/>
<path d="M27.7 20.9L22 26.6H19.7V24.3L25.4 18.6L27.7 20.9ZM31.1 20.1C31.1 20.4 30.8 20.7 30.5 21L28 23.5L27.1 22.6L29.7 20L29.1 19.4L28.4 20.1L26.1 17.8L28.3 15.7C28.5 15.5 28.9 15.5 29.2 15.7L30.6 17.1C30.8 17.3 30.8 17.7 30.6 18C30.4 18.2 30.2 18.4 30.2 18.6C30.2 18.8 30.4 19 30.6 19.2C30.9 19.5 31.2 19.8 31.1 20.1ZM11 28V12H18V17H23V18.5L25 16.5V16L19 10H11C9.9 10 9 10.9 9 12V28C9 29.1 9.9 30 11 30H23C24.1 30 25 29.1 25 28H11ZM19 25.1C18.8 25.1 18.6 25.2 18.5 25.2L18 23H16.5L14.4 24.7L15 22H13.5L12.5 27H14L16.9 24.4L17.5 26.7H18.5L19 26.6V25.1Z" fill="white"/>
</svg>
