<svg width="98" height="20" viewBox="0 0 98 20" fill="none" xmlns="http://www.w3.org/2000/svg">
<rect width="98" height="20" rx="10" fill="white"/>
<path d="M27.4432 7.18182L29.1705 12.0795H29.2386L30.9659 7.18182H31.7045L29.5682 13H28.8409L26.7045 7.18182H27.4432ZM32.5199 13V8.63636H33.1903V13H32.5199ZM32.8608 7.90909C32.7301 7.90909 32.6174 7.86458 32.5227 7.77557C32.4299 7.68655 32.3835 7.57955 32.3835 7.45455C32.3835 7.32955 32.4299 7.22254 32.5227 7.13352C32.6174 7.04451 32.7301 7 32.8608 7C32.9915 7 33.1032 7.04451 33.196 7.13352C33.2907 7.22254 33.3381 7.32955 33.3381 7.45455C33.3381 7.57955 33.2907 7.68655 33.196 7.77557C33.1032 7.86458 32.9915 7.90909 32.8608 7.90909ZM36.2479 13.0909C35.8274 13.0909 35.4647 12.9981 35.1598 12.8125C34.8568 12.625 34.6229 12.3636 34.4581 12.0284C34.2952 11.6913 34.2138 11.2992 34.2138 10.8523C34.2138 10.4053 34.2952 10.0114 34.4581 9.67045C34.6229 9.32765 34.852 9.06061 35.1456 8.86932C35.4411 8.67614 35.7857 8.57955 36.1797 8.57955C36.407 8.57955 36.6314 8.61742 36.853 8.69318C37.0746 8.76894 37.2763 8.89205 37.4581 9.0625C37.6399 9.23106 37.7848 9.45455 37.8928 9.73295C38.0007 10.0114 38.0547 10.3542 38.0547 10.7614V11.0455H34.6911V10.4659H37.3729C37.3729 10.2197 37.3236 10 37.2251 9.80682C37.1286 9.61364 36.9903 9.46117 36.8104 9.34943C36.6323 9.23769 36.4221 9.18182 36.1797 9.18182C35.9126 9.18182 35.6816 9.24811 35.4865 9.38068C35.2933 9.51136 35.1446 9.68182 35.0405 9.89205C34.9363 10.1023 34.8842 10.3277 34.8842 10.5682V10.9545C34.8842 11.2841 34.9411 11.5634 35.0547 11.7926C35.1702 12.0199 35.3303 12.1932 35.5348 12.3125C35.7393 12.4299 35.977 12.4886 36.2479 12.4886C36.424 12.4886 36.5831 12.464 36.7251 12.4148C36.8691 12.3636 36.9931 12.2879 37.0973 12.1875C37.2015 12.0852 37.282 11.9583 37.3388 11.8068L37.9865 11.9886C37.9183 12.2083 37.8037 12.4015 37.6428 12.5682C37.4818 12.733 37.2829 12.8617 37.0462 12.9545C36.8094 13.0455 36.5433 13.0909 36.2479 13.0909ZM40.0632 13L38.7337 8.63636H39.4382L40.3814 11.9773H40.4268L41.3587 8.63636H42.0746L42.995 11.9659H43.0405L43.9837 8.63636H44.6882L43.3587 13H42.6996L41.745 9.64773H41.6768L40.7223 13H40.0632ZM47.9155 13V7.18182H49.8814C50.3378 7.18182 50.7109 7.2642 51.0007 7.42898C51.2924 7.59186 51.5083 7.8125 51.6484 8.09091C51.7886 8.36932 51.8587 8.67992 51.8587 9.02273C51.8587 9.36553 51.7886 9.67708 51.6484 9.95739C51.5102 10.2377 51.2962 10.4612 51.0064 10.6278C50.7166 10.7926 50.3454 10.875 49.8928 10.875H48.4837V10.25H49.87C50.1825 10.25 50.4335 10.196 50.6229 10.0881C50.8123 9.98011 50.9496 9.83428 51.0348 9.65057C51.1219 9.46496 51.1655 9.25568 51.1655 9.02273C51.1655 8.78977 51.1219 8.58144 51.0348 8.39773C50.9496 8.21402 50.8113 8.07008 50.62 7.96591C50.4287 7.85985 50.175 7.80682 49.8587 7.80682H48.62V13H47.9155ZM52.9027 13V8.63636H53.5504V9.29545H53.5959C53.6754 9.07955 53.8194 8.90436 54.0277 8.76989C54.236 8.63542 54.4709 8.56818 54.7322 8.56818C54.7815 8.56818 54.843 8.56913 54.9169 8.57102C54.9908 8.57292 55.0466 8.57576 55.0845 8.57955V9.26136C55.0618 9.25568 55.0097 9.24716 54.9283 9.2358C54.8487 9.22254 54.7644 9.21591 54.6754 9.21591C54.4633 9.21591 54.2739 9.26042 54.1072 9.34943C53.9425 9.43655 53.8118 9.55777 53.7152 9.71307C53.6205 9.86648 53.5732 10.0417 53.5732 10.2386V13H52.9027ZM57.5192 13.0909C57.1252 13.0909 56.7796 12.9972 56.4822 12.8097C56.1868 12.6222 55.9557 12.3598 55.7891 12.0227C55.6243 11.6856 55.5419 11.2917 55.5419 10.8409C55.5419 10.3864 55.6243 9.98958 55.7891 9.65057C55.9557 9.31155 56.1868 9.0483 56.4822 8.8608C56.7796 8.6733 57.1252 8.57955 57.5192 8.57955C57.9131 8.57955 58.2578 8.6733 58.5533 8.8608C58.8506 9.0483 59.0817 9.31155 59.2464 9.65057C59.4131 9.98958 59.4964 10.3864 59.4964 10.8409C59.4964 11.2917 59.4131 11.6856 59.2464 12.0227C59.0817 12.3598 58.8506 12.6222 58.5533 12.8097C58.2578 12.9972 57.9131 13.0909 57.5192 13.0909ZM57.5192 12.4886C57.8184 12.4886 58.0646 12.4119 58.2578 12.2585C58.451 12.1051 58.594 11.9034 58.6868 11.6534C58.7796 11.4034 58.826 11.1326 58.826 10.8409C58.826 10.5492 58.7796 10.2775 58.6868 10.0256C58.594 9.77367 58.451 9.57008 58.2578 9.41477C58.0646 9.25947 57.8184 9.18182 57.5192 9.18182C57.2199 9.18182 56.9737 9.25947 56.7805 9.41477C56.5874 9.57008 56.4444 9.77367 56.3516 10.0256C56.2588 10.2775 56.2124 10.5492 56.2124 10.8409C56.2124 11.1326 56.2588 11.4034 56.3516 11.6534C56.4444 11.9034 56.5874 12.1051 56.7805 12.2585C56.9737 12.4119 57.2199 12.4886 57.5192 12.4886ZM62.4631 8.63636V9.20455H60.1108V8.63636H62.4631ZM60.8153 13V8.03409C60.8153 7.78409 60.8741 7.57576 60.9915 7.40909C61.1089 7.24242 61.2614 7.11742 61.4489 7.03409C61.6364 6.95076 61.8343 6.90909 62.0426 6.90909C62.2074 6.90909 62.3419 6.92235 62.446 6.94886C62.5502 6.97538 62.6278 7 62.679 7.02273L62.4858 7.60227C62.4517 7.59091 62.4044 7.5767 62.3438 7.55966C62.285 7.54261 62.2074 7.53409 62.1108 7.53409C61.8892 7.53409 61.7292 7.58996 61.6307 7.7017C61.5341 7.81345 61.4858 7.97727 61.4858 8.19318V13H60.8153ZM63.4027 13V8.63636H64.0732V13H63.4027ZM63.7436 7.90909C63.6129 7.90909 63.5002 7.86458 63.4055 7.77557C63.3127 7.68655 63.2663 7.57955 63.2663 7.45455C63.2663 7.32955 63.3127 7.22254 63.4055 7.13352C63.5002 7.04451 63.6129 7 63.7436 7C63.8743 7 63.986 7.04451 64.0788 7.13352C64.1735 7.22254 64.2209 7.32955 64.2209 7.45455C64.2209 7.57955 64.1735 7.68655 64.0788 7.77557C63.986 7.86458 63.8743 7.90909 63.7436 7.90909ZM65.9716 7.18182V13H65.3011V7.18182H65.9716ZM69.0291 13.0909C68.6087 13.0909 68.246 12.9981 67.9411 12.8125C67.638 12.625 67.4041 12.3636 67.2393 12.0284C67.0765 11.6913 66.995 11.2992 66.995 10.8523C66.995 10.4053 67.0765 10.0114 67.2393 9.67045C67.4041 9.32765 67.6333 9.06061 67.9268 8.86932C68.2223 8.67614 68.567 8.57955 68.9609 8.57955C69.1882 8.57955 69.4126 8.61742 69.6342 8.69318C69.8558 8.76894 70.0575 8.89205 70.2393 9.0625C70.4212 9.23106 70.5661 9.45455 70.674 9.73295C70.782 10.0114 70.8359 10.3542 70.8359 10.7614V11.0455H67.4723V10.4659H70.1541C70.1541 10.2197 70.1049 10 70.0064 9.80682C69.9098 9.61364 69.7715 9.46117 69.5916 9.34943C69.4136 9.23769 69.2034 9.18182 68.9609 9.18182C68.6939 9.18182 68.4628 9.24811 68.2678 9.38068C68.0746 9.51136 67.9259 9.68182 67.8217 9.89205C67.7176 10.1023 67.6655 10.3277 67.6655 10.5682V10.9545C67.6655 11.2841 67.7223 11.5634 67.8359 11.7926C67.9515 12.0199 68.1115 12.1932 68.3161 12.3125C68.5206 12.4299 68.7583 12.4886 69.0291 12.4886C69.2053 12.4886 69.3643 12.464 69.5064 12.4148C69.6503 12.3636 69.7744 12.2879 69.8786 12.1875C69.9827 12.0852 70.0632 11.9583 70.12 11.8068L70.7678 11.9886C70.6996 12.2083 70.585 12.4015 70.424 12.5682C70.263 12.733 70.0642 12.8617 69.8274 12.9545C69.5907 13.0455 69.3246 13.0909 69.0291 13.0909Z" fill="#007CB6"/>
</svg>
