<svg width="40" height="40" viewBox="0 0 40 40" fill="none" xmlns="http://www.w3.org/2000/svg">
<rect width="40" height="40" rx="20" fill="#0057FF"/>
<g clip-path="url(#clip0_8_818)">
<path d="M10 8C10 6.89375 10.8937 6 12 6H28C29.1063 6 30 6.89375 30 8C30 9.10625 29.1063 10 28 10H24.4875C25.0875 10.9 25.5312 11.9125 25.7812 13H28C29.1063 13 30 13.8938 30 15C30 16.1062 29.1063 17 28 17H25.775C24.95 20.6438 21.9062 23.45 18.1375 23.9312L27.1625 30.375C28.0625 31.0187 28.2687 32.2688 27.625 33.1625C26.9813 34.0562 25.7312 34.2687 24.8375 33.625L10.8375 23.625C10.1312 23.125 9.83125 22.2188 10.0937 21.3875C10.3562 20.5563 11.1312 20 12 20H17C19.05 20 20.8125 18.7688 21.5813 17H12C10.8937 17 10 16.1062 10 15C10 13.8938 10.8937 13 12 13H21.5813C20.8125 11.2312 19.05 10 17 10H12C10.8937 10 10 9.10625 10 8Z" fill="white"/>
</g>
<defs>
<clipPath id="clip0_8_818">
<rect width="20" height="32" fill="white" transform="translate(10 4)"/>
</clipPath>
</defs>
</svg>
