<svg width="40" height="41" viewBox="0 0 40 41" fill="none" xmlns="http://www.w3.org/2000/svg">
<rect y="0.5" width="40" height="40" rx="20" fill="#0057FF"/>
<g clip-path="url(#clip0_8_830)">
<path fill-rule="evenodd" clip-rule="evenodd" d="M19.9703 7.92857C19.0148 7.91131 18.0652 8.08265 17.176 8.43278C16.2868 8.78291 15.4754 9.30496 14.7881 9.96905C14.1009 10.6331 13.5514 11.4262 13.171 12.3029C12.7907 13.1796 12.5869 14.1227 12.5714 15.0783V25.0714C12.5714 25.6776 12.3306 26.259 11.902 26.6877C11.4733 27.1163 10.8919 27.3571 10.2857 27.3571H7.42857C6.51926 27.3571 5.64719 26.9959 5.00421 26.3529C4.36122 25.71 4 24.8379 4 23.9286V19.3571C4 18.4478 4.36122 17.5758 5.00421 16.9328C5.64719 16.2898 6.51926 15.9286 7.42857 15.9286H9.14286V15.0371C9.16371 13.6323 9.4611 12.2454 10.018 10.9555C10.575 9.66564 11.3806 8.49812 12.3888 7.51962C13.397 6.54113 14.5881 5.77083 15.894 5.25271C17.2 4.7346 18.5952 4.47882 20 4.49999C21.4048 4.47882 22.8 4.7346 24.106 5.25271C25.4119 5.77083 26.603 6.54113 27.6112 7.51962C28.6194 8.49812 29.425 9.66564 29.982 10.9555C30.5389 12.2454 30.8363 13.6323 30.8571 15.0371V15.9286H32.5714C33.4807 15.9286 34.3528 16.2898 34.9958 16.9328C35.6388 17.5758 36 18.4478 36 19.3571V23.9286C36 24.8379 35.6388 25.71 34.9958 26.3529C34.3528 26.9959 33.4807 27.3571 32.5714 27.3571H30.8571V28.5C30.8574 30.0446 30.289 31.5352 29.2603 32.6874C28.2317 33.8396 26.8147 34.5727 25.28 34.7469C24.982 35.279 24.5473 35.722 24.021 36.0302C23.4947 36.3383 22.8956 36.5005 22.2857 36.5H18.8571C17.9478 36.5 17.0758 36.1388 16.4328 35.4958C15.7898 34.8528 15.4286 33.9807 15.4286 33.0714C15.4286 32.1621 15.7898 31.29 16.4328 30.6471C17.0758 30.0041 17.9478 29.6429 18.8571 29.6429H22.2857C23.5246 29.6429 24.6103 30.2989 25.2114 31.284C25.8414 31.1392 26.4037 30.785 26.8064 30.2794C27.2091 29.7737 27.4284 29.1464 27.4286 28.5V15.076C27.4129 14.1155 27.207 13.1677 26.8228 12.2873C26.4386 11.4069 25.8836 10.6114 25.1901 9.94678C24.4966 9.28215 23.6782 8.76158 22.7822 8.41517C21.8863 8.06875 20.9305 7.90337 19.9703 7.92857Z" fill="white"/>
</g>
<defs>
<clipPath id="clip0_8_830">
<rect width="32" height="32" fill="white" transform="translate(4 4.5)"/>
</clipPath>
</defs>
</svg>
