<svg width="24" height="24" viewBox="0 0 24 24" fill="none" xmlns="http://www.w3.org/2000/svg">
<path d="M22.6667 21.3334V10C22.6667 9.79303 22.6185 9.58888 22.5259 9.40374C22.4333 9.2186 22.2989 9.05755 22.1333 8.93335L12.8 1.93335C12.5692 1.76026 12.2885 1.66669 12 1.66669C11.7115 1.66669 11.4308 1.76026 11.2 1.93335L1.86668 8.93335C1.70108 9.05755 1.56668 9.2186 1.47411 9.40374C1.38154 9.58888 1.33334 9.79303 1.33334 10V21.3334C1.33334 21.687 1.47382 22.0261 1.72387 22.2762C1.97392 22.5262 2.31305 22.6667 2.66668 22.6667H8.00001C8.35363 22.6667 8.69277 22.5262 8.94282 22.2762C9.19287 22.0261 9.33334 21.687 9.33334 21.3334V17.3334C9.33334 16.9797 9.47382 16.6406 9.72387 16.3905C9.97392 16.1405 10.3131 16 10.6667 16H13.3333C13.687 16 14.0261 16.1405 14.2762 16.3905C14.5262 16.6406 14.6667 16.9797 14.6667 17.3334V21.3334C14.6667 21.687 14.8072 22.0261 15.0572 22.2762C15.3073 22.5262 15.6464 22.6667 16 22.6667H21.3333C21.687 22.6667 22.0261 22.5262 22.2762 22.2762C22.5262 22.0261 22.6667 21.687 22.6667 21.3334Z" fill="#0057FF" stroke="#0057FF" stroke-width="2.66667" stroke-linecap="round" stroke-linejoin="round"/>
</svg>
