<svg width="42" height="42" viewBox="0 0 42 42" fill="none" xmlns="http://www.w3.org/2000/svg">
<rect width="42" height="42" rx="21" fill="#0057FF"/>
<path d="M10.5 33.25H9.625C9.16087 33.25 8.71575 33.0656 8.38756 32.7374C8.05937 32.4092 7.875 31.9641 7.875 31.5V13.125C7.875 12.6609 8.05937 12.2158 8.38756 11.8876C8.71575 11.5594 9.16087 11.375 9.625 11.375H10.5C10.9641 11.375 11.4092 11.5594 11.7374 11.8876C12.0656 12.2158 12.25 12.6609 12.25 13.125V31.5C12.25 31.9641 12.0656 32.4092 11.7374 32.7374C11.4092 33.0656 10.9641 33.25 10.5 33.25ZM20.125 16.625C20.125 16.1609 19.9406 15.7158 19.6124 15.3876C19.2842 15.0594 18.8391 14.875 18.375 14.875H14.875C14.4109 14.875 13.9658 15.0594 13.6376 15.3876C13.3094 15.7158 13.125 16.1609 13.125 16.625V18.1562C13.125 18.2143 13.148 18.2699 13.1891 18.3109C13.2301 18.352 13.2857 18.375 13.3438 18.375H19.9062C19.9643 18.375 20.0199 18.352 20.0609 18.3109C20.102 18.2699 20.125 18.2143 20.125 18.1562V16.625ZM13.125 31.5C13.125 31.9641 13.3094 32.4092 13.6376 32.7374C13.9658 33.0656 14.4109 33.25 14.875 33.25H18.375C18.8391 33.25 19.2842 33.0656 19.6124 32.7374C19.9406 32.4092 20.125 31.9641 20.125 31.5V29.8594C20.125 29.8304 20.1135 29.8025 20.093 29.782C20.0725 29.7615 20.0446 29.75 20.0156 29.75H13.2344C13.2054 29.75 13.1775 29.7615 13.157 29.782C13.1365 29.8025 13.125 29.8304 13.125 29.8594V31.5Z" fill="white"/>
<path d="M20.0156 20.125H13.2344C13.174 20.125 13.125 20.174 13.125 20.2344V27.8906C13.125 27.951 13.174 28 13.2344 28H20.0156C20.076 28 20.125 27.951 20.125 27.8906V20.2344C20.125 20.174 20.076 20.125 20.0156 20.125Z" fill="white"/>
<path d="M24.5 33.25H22.75C22.2859 33.25 21.8408 33.0656 21.5126 32.7374C21.1844 32.4092 21 31.9641 21 31.5V10.5C21 10.0359 21.1844 9.59075 21.5126 9.26256C21.8408 8.93437 22.2859 8.75 22.75 8.75H24.5C24.9641 8.75 25.4092 8.93437 25.7374 9.26256C26.0656 9.59075 26.25 10.0359 26.25 10.5V31.5C26.25 31.9641 26.0656 32.4092 25.7374 32.7374C25.4092 33.0656 24.9641 33.25 24.5 33.25ZM34.119 31.3605L32.3564 12.7668C32.2755 11.9109 31.43 11.2902 30.468 11.3827L28.7262 11.5467C27.7643 11.638 27.0501 12.4059 27.131 13.2617L28.8936 31.8555C28.9745 32.7113 29.82 33.332 30.782 33.2396L32.5238 33.0755C33.4857 32.9842 34.1999 32.2164 34.119 31.3605Z" fill="white"/>
</svg>
