<svg width="14" height="11" viewBox="0 0 14 11" fill="none" xmlns="http://www.w3.org/2000/svg">
<path opacity="0.28" fill-rule="evenodd" clip-rule="evenodd" d="M2.36879 4.55758C2.36879 4.06873 2.35548 3.59071 2.36879 3.11332C2.42453 1.56429 4.13919 0.266613 6.43197 0.0383319C8.72621 -0.201235 10.9434 0.702642 11.675 2.17574C11.8271 2.54944 11.9096 2.93425 11.9207 3.32146C11.9607 3.72946 11.9303 4.14129 11.9303 4.5372C11.9865 4.55758 12.0065 4.57157 12.0255 4.5703C12.931 4.52893 13.3424 4.90128 13.3272 5.49261C13.2958 6.72809 13.3015 7.96419 13.3272 9.20031C13.3743 9.44048 13.2517 9.68162 12.9958 9.85301C12.7397 10.0244 12.3791 10.1066 12.0198 10.0755C8.77073 10.0543 5.5214 10.0543 2.27167 10.0755C1.91179 10.1057 1.55145 10.0223 1.29653 9.84978C1.04167 9.67729 0.921308 9.43537 0.970943 9.19522C1.00047 7.94448 0.979545 6.69373 0.979545 5.4398C0.979545 4.83001 1.30141 4.60597 2.21739 4.57477C2.24499 4.57603 2.27737 4.56904 2.36879 4.55758ZM4.36853 4.56395H9.8753C9.88291 4.5003 9.89622 4.44874 9.89436 4.39783C9.881 3.91153 9.91436 3.42206 9.83816 2.94021C9.67386 2.05741 8.56074 1.39079 7.22996 1.37822C5.92418 1.33352 4.76392 1.93082 4.49512 2.78617C4.40096 3.37661 4.35836 3.97021 4.36754 4.56395H4.36853Z" fill="black"/>
</svg>
