<svg width="40" height="40" viewBox="0 0 40 40" fill="none" xmlns="http://www.w3.org/2000/svg">
<rect width="40" height="40" rx="20" fill="#0057FF"/>
<g clip-path="url(#clip0_8_839)">
<path fill-rule="evenodd" clip-rule="evenodd" d="M8 10.5714C8 9.88944 8.27092 9.23539 8.75315 8.75315C9.23539 8.27092 9.88944 8 10.5714 8H22.5714C23.2534 8 23.9075 8.27092 24.3897 8.75315C24.8719 9.23539 25.1429 9.88944 25.1429 10.5714V13.8954C24.4473 14.4526 23.996 15.2587 23.8846 16.1429H17.8571C17.3506 16.1429 16.849 16.2426 16.3811 16.4365C15.9131 16.6303 15.4879 16.9144 15.1297 17.2726C14.7716 17.6308 14.4874 18.056 14.2936 18.5239C14.0998 18.9919 14 19.4935 14 20C14 20.5065 14.0998 21.0081 14.2936 21.4761C14.4874 21.944 14.7716 22.3692 15.1297 22.7274C15.4879 23.0856 15.9131 23.3697 16.3811 23.5635C16.849 23.7574 17.3506 23.8571 17.8571 23.8571H23.8846C23.996 24.7413 24.4473 25.5474 25.1429 26.1046V29.4286C25.1429 30.1106 24.8719 30.7646 24.3897 31.2468C23.9075 31.7291 23.2534 32 22.5714 32H10.5714C9.88944 32 9.23539 31.7291 8.75315 31.2468C8.27092 30.7646 8 30.1106 8 29.4286V10.5714ZM26.7937 15.3834C26.5588 15.4807 26.3579 15.6456 26.2166 15.857C26.0754 16.0685 26 16.3171 26 16.5714V18.2857H17.8571C17.4025 18.2857 16.9665 18.4663 16.645 18.7878C16.3235 19.1093 16.1429 19.5453 16.1429 20C16.1429 20.4547 16.3235 20.8907 16.645 21.2122C16.9665 21.5337 17.4025 21.7143 17.8571 21.7143H26V23.4286C26.0002 23.6827 26.0758 23.9311 26.217 24.1423C26.3583 24.3535 26.5591 24.5181 26.7938 24.6154C27.0286 24.7126 27.287 24.738 27.5362 24.6885C27.7855 24.639 28.0145 24.5167 28.1943 24.3371L31.6229 20.9086C31.8636 20.6675 31.9989 20.3407 31.9989 20C31.9989 19.6593 31.8636 19.3325 31.6229 19.0914L28.1943 15.6629C28.0146 15.483 27.7857 15.3605 27.5364 15.3108C27.2871 15.2611 27.0286 15.2863 26.7937 15.3834Z" fill="white"/>
</g>
<defs>
<clipPath id="clip0_8_839">
<rect width="24" height="24" fill="white" transform="translate(8 8)"/>
</clipPath>
</defs>
</svg>
