<svg width="40" height="40" viewBox="0 0 40 40" fill="none" xmlns="http://www.w3.org/2000/svg">
<rect width="40" height="40" rx="20" fill="#0057FF"/>
<path d="M22.3333 6.66667H17.6667C16.9288 6.66669 16.2167 6.93868 15.6667 7.43063C15.1167 7.92259 14.7673 8.59999 14.6853 9.33334H12.3333C11.5377 9.33334 10.7746 9.64941 10.212 10.212C9.64941 10.7746 9.33334 11.5377 9.33334 12.3333V30.3333C9.33334 31.129 9.64941 31.892 10.212 32.4547C10.7746 33.0173 11.5377 33.3333 12.3333 33.3333H27.6667C28.0606 33.3333 28.4508 33.2557 28.8147 33.105C29.1787 32.9542 29.5094 32.7332 29.788 32.4547C30.0666 32.1761 30.2876 31.8454 30.4383 31.4814C30.5891 31.1174 30.6667 30.7273 30.6667 30.3333V12.3333C30.6667 11.9394 30.5891 11.5493 30.4383 11.1853C30.2876 10.8213 30.0666 10.4906 29.788 10.212C29.5094 9.93344 29.1787 9.71246 28.8147 9.5617C28.4508 9.41094 28.0606 9.33334 27.6667 9.33334H25.3147C25.2327 8.59999 24.8833 7.92259 24.3333 7.43063C23.7833 6.93868 23.0713 6.66669 22.3333 6.66667ZM17.6667 8.66667H22.3333C22.5986 8.66667 22.8529 8.77203 23.0405 8.95956C23.228 9.1471 23.3333 9.40146 23.3333 9.66667C23.3333 9.93189 23.228 10.1862 23.0405 10.3738C22.8529 10.5613 22.5986 10.6667 22.3333 10.6667H17.6667C17.4015 10.6667 17.1471 10.5613 16.9596 10.3738C16.772 10.1862 16.6667 9.93189 16.6667 9.66667C16.6667 9.40146 16.772 9.1471 16.9596 8.95956C17.1471 8.77203 17.4015 8.66667 17.6667 8.66667ZM20.6667 17.6667C20.6667 17.4015 20.772 17.1471 20.9596 16.9596C21.1471 16.772 21.4015 16.6667 21.6667 16.6667H26.3333C26.5986 16.6667 26.8529 16.772 27.0405 16.9596C27.228 17.1471 27.3333 17.4015 27.3333 17.6667C27.3333 17.9319 27.228 18.1862 27.0405 18.3738C26.8529 18.5613 26.5986 18.6667 26.3333 18.6667H21.6667C21.4015 18.6667 21.1471 18.5613 20.9596 18.3738C20.772 18.1862 20.6667 17.9319 20.6667 17.6667ZM21.6667 24H26.3333C26.5986 24 26.8529 24.1054 27.0405 24.2929C27.228 24.4804 27.3333 24.7348 27.3333 25C27.3333 25.2652 27.228 25.5196 27.0405 25.7071C26.8529 25.8946 26.5986 26 26.3333 26H21.6667C21.4015 26 21.1471 25.8946 20.9596 25.7071C20.772 25.5196 20.6667 25.2652 20.6667 25C20.6667 24.7348 20.772 24.4804 20.9596 24.2929C21.1471 24.1054 21.4015 24 21.6667 24ZM18.3733 17.04L15.7067 19.7067C15.5192 19.8939 15.265 19.9991 15 19.9991C14.735 19.9991 14.4808 19.8939 14.2933 19.7067L12.96 18.3733C12.8618 18.2818 12.783 18.1714 12.7283 18.0487C12.6736 17.9261 12.6443 17.7936 12.6419 17.6594C12.6395 17.5251 12.6642 17.3917 12.7145 17.2672C12.7648 17.1427 12.8397 17.0296 12.9346 16.9346C13.0296 16.8397 13.1427 16.7648 13.2672 16.7145C13.3917 16.6642 13.5251 16.6395 13.6594 16.6419C13.7936 16.6443 13.9261 16.6736 14.0487 16.7283C14.1714 16.783 14.2818 16.8618 14.3733 16.96L15 17.5867L16.96 15.6267C17.0516 15.5284 17.162 15.4496 17.2846 15.395C17.4073 15.3403 17.5397 15.3109 17.674 15.3085C17.8083 15.3062 17.9416 15.3309 18.0661 15.3812C18.1907 15.4315 18.3038 15.5063 18.3987 15.6013C18.4937 15.6962 18.5685 15.8094 18.6188 15.9339C18.6691 16.0584 18.6938 16.1918 18.6915 16.326C18.6891 16.4603 18.6597 16.5927 18.6051 16.7154C18.5504 16.8381 18.4716 16.9485 18.3733 17.04ZM18.3733 22.96C18.5606 23.1475 18.6658 23.4017 18.6658 23.6667C18.6658 23.9317 18.5606 24.1858 18.3733 24.3733L15.7067 27.04C15.5192 27.2273 15.265 27.3325 15 27.3325C14.735 27.3325 14.4808 27.2273 14.2933 27.04L12.96 25.7067C12.8618 25.6151 12.783 25.5047 12.7283 25.3821C12.6736 25.2594 12.6443 25.127 12.6419 24.9927C12.6395 24.8584 12.6642 24.7251 12.7145 24.6005C12.7648 24.476 12.8397 24.3629 12.9346 24.268C13.0296 24.173 13.1427 24.0981 13.2672 24.0478C13.3917 23.9975 13.5251 23.9728 13.6594 23.9752C13.7936 23.9776 13.9261 24.007 14.0487 24.0616C14.1714 24.1163 14.2818 24.1951 14.3733 24.2933L15 24.92L16.96 22.96C17.1475 22.7727 17.4017 22.6676 17.6667 22.6676C17.9317 22.6676 18.1858 22.7727 18.3733 22.96Z" fill="white"/>
</svg>
