<svg width="40" height="40" viewBox="0 0 40 40" fill="none" xmlns="http://www.w3.org/2000/svg">
<rect width="40" height="40" rx="20" fill="#0057FF"/>
<g clip-path="url(#clip0_8_821)">
<path d="M20 6.66667C17.5246 6.66667 15.1507 7.65 13.4003 9.40034C11.65 11.1507 10.6667 13.5247 10.6667 16V20.704C10.6669 20.9108 10.6189 21.1149 10.5267 21.3L8.23733 25.8773C8.1255 26.101 8.07269 26.3495 8.08392 26.5992C8.09516 26.849 8.17006 27.0918 8.30152 27.3045C8.43298 27.5171 8.61662 27.6927 8.83502 27.8144C9.05341 27.9362 9.2993 28 9.54933 28H30.4507C30.7007 28 30.9466 27.9362 31.165 27.8144C31.3834 27.6927 31.567 27.5171 31.6985 27.3045C31.8299 27.0918 31.9048 26.849 31.9161 26.5992C31.9273 26.3495 31.8745 26.101 31.7627 25.8773L29.4747 21.3C29.3819 21.115 29.3335 20.9109 29.3333 20.704V16C29.3333 13.5247 28.35 11.1507 26.5997 9.40034C24.8493 7.65 22.4753 6.66667 20 6.66667ZM20 32C19.1725 32.0002 18.3653 31.7439 17.6895 31.2664C17.0138 30.7888 16.5027 30.1134 16.2267 29.3333H23.7733C23.4973 30.1134 22.9862 30.7888 22.3105 31.2664C21.6347 31.7439 20.8275 32.0002 20 32Z" fill="white"/>
</g>
<defs>
<clipPath id="clip0_8_821">
<rect width="32" height="32" fill="white" transform="translate(4 4)"/>
</clipPath>
</defs>
</svg>
