<svg width="40" height="41" viewBox="0 0 40 41" fill="none" xmlns="http://www.w3.org/2000/svg">
<rect y="0.5" width="40" height="40" rx="20" fill="#0057FF"/>
<g clip-path="url(#clip0_8_827)">
<path d="M27 12.3333H8.33333V11.3813C8.33415 10.7242 8.51952 10.0805 8.86831 9.52358C9.21711 8.96666 9.71531 8.51891 10.3062 8.23132C14.1375 6.01465 21.2005 6.02165 25.026 8.23132C25.6169 8.51896 26.1152 8.9667 26.4642 9.52358C26.8132 10.0805 26.9988 10.7241 27 11.3813V12.3333ZM8.33333 22.8333V28.6667H10.6667V31H13V26.3333C13.1132 25.1419 13.3633 23.9675 13.7455 22.8333H8.33333ZM34 27.5V32.1667H31.6667V34.5H27V32.1667H22.3333V34.5H17.6667V32.1667H15.3333V27.5C15.3357 26.7171 15.4095 25.9361 15.5538 25.1667H33.7795C33.9238 25.9361 33.9976 26.7171 34 27.5ZM20.007 27.5C19.6976 27.5 19.4008 27.6229 19.182 27.8417C18.9632 28.0605 18.8403 28.3572 18.8403 28.6667C18.8403 28.9761 18.9632 29.2728 19.182 29.4916C19.4008 29.7104 19.6976 29.8333 20.007 29.8333C20.3164 29.8333 20.6132 29.7104 20.832 29.4916C21.0507 29.2728 21.1737 28.9761 21.1737 28.6667C21.1737 28.3572 21.0507 28.0605 20.832 27.8417C20.6132 27.6229 20.3164 27.5 20.007 27.5ZM29.3403 27.5C29.0309 27.5 28.7342 27.6229 28.5154 27.8417C28.2966 28.0605 28.1737 28.3572 28.1737 28.6667C28.1737 28.9761 28.2966 29.2728 28.5154 29.4916C28.7342 29.7104 29.0309 29.8333 29.3403 29.8333C29.6498 29.8333 29.9465 29.7104 30.1653 29.4916C30.3841 29.2728 30.507 28.9761 30.507 28.6667C30.507 28.3572 30.3841 28.0605 30.1653 27.8417C29.9465 27.6229 29.6498 27.5 29.3403 27.5ZM17.7413 19.1537L16.3203 22.5638C16.2842 22.6525 16.2585 22.7447 16.2235 22.8333H33.1098C33.0748 22.7447 33.0492 22.6525 33.013 22.5638L31.592 19.1548C31.3276 18.516 30.8793 17.9702 30.3042 17.5865C29.729 17.2029 29.0529 16.9987 28.3615 17H20.9718C20.2806 16.9988 19.6046 17.2028 19.0295 17.5862C18.4544 17.9696 18.0061 18.5152 17.7413 19.1537ZM15.5877 18.2565C16.0289 17.1923 16.7761 16.283 17.7346 15.644C18.6931 15.0049 19.8198 14.6647 20.9718 14.6667H8.33333V15.8333H6V18.1667C6 18.7855 6.24583 19.379 6.68342 19.8166C7.121 20.2542 7.71449 20.5 8.33333 20.5H14.6532L15.5877 18.2565Z" fill="white"/>
</g>
<defs>
<clipPath id="clip0_8_827">
<rect width="28" height="28" fill="white" transform="translate(6 6.5)"/>
</clipPath>
</defs>
</svg>
