<svg width="40" height="40" viewBox="0 0 40 40" fill="none" xmlns="http://www.w3.org/2000/svg">
<rect width="40" height="40" rx="20" fill="#0057FF"/>
<path d="M20 23C21.6569 23 23 21.6569 23 20C23 18.3431 21.6569 17 20 17C18.3431 17 17 18.3431 17 20C17 21.6569 18.3431 23 20 23Z" fill="white"/>
<path d="M33.3994 22.75L33.37 22.7262L31.3975 21.1794C31.2726 21.0806 31.1729 20.9535 31.1066 20.8087C31.0403 20.6639 31.0094 20.5054 31.0163 20.3463V19.6237C31.01 19.4656 31.0413 19.3083 31.1077 19.1647C31.1741 19.021 31.2736 18.8952 31.3981 18.7975L33.37 17.25L33.3994 17.2262C33.7035 16.9729 33.9076 16.6197 33.9751 16.2297C34.0427 15.8397 33.9693 15.4384 33.7681 15.0975L31.0987 10.4788C31.0957 10.4744 31.093 10.4698 31.0906 10.465C30.8884 10.1289 30.5748 9.87416 30.2043 9.74514C29.8338 9.61613 29.4298 9.62094 29.0625 9.75875L29.0406 9.76687L26.7219 10.7C26.5755 10.7592 26.4172 10.7827 26.26 10.7687C26.1027 10.7547 25.9511 10.7035 25.8175 10.6194C25.6125 10.4902 25.4042 10.3681 25.1925 10.2531C25.0553 10.1787 24.9374 10.0731 24.8485 9.94475C24.7596 9.81643 24.7021 9.66901 24.6806 9.51438L24.3312 7.04L24.3237 6.995C24.2477 6.61175 24.042 6.26636 23.7413 6.01687C23.4406 5.76738 23.0632 5.62901 22.6725 5.625H17.3275C16.9313 5.62627 16.5482 5.76732 16.2458 6.02331C15.9434 6.27931 15.741 6.63381 15.6744 7.02437L15.6687 7.05938L15.3206 9.53875C15.2993 9.69294 15.2422 9.84001 15.154 9.96827C15.0658 10.0965 14.9488 10.2024 14.8125 10.2775C14.6002 10.3918 14.3918 10.5132 14.1875 10.6413C14.0542 10.7249 13.9029 10.7757 13.7461 10.7895C13.5893 10.8033 13.4315 10.7797 13.2856 10.7206L10.965 9.78312L10.9431 9.77437C10.5753 9.63642 10.1707 9.63179 9.79983 9.76128C9.42893 9.89078 9.11516 10.1462 8.91313 10.4831L8.905 10.4969L6.23187 15.1187C6.03039 15.46 5.95686 15.8617 6.02441 16.2522C6.09197 16.6426 6.29622 16.9963 6.60062 17.25L6.63 17.2738L8.6025 18.8206C8.72741 18.9194 8.8271 19.0465 8.89338 19.1913C8.95965 19.3361 8.99063 19.4946 8.98375 19.6538V20.3762C8.99001 20.5344 8.95866 20.6917 8.89227 20.8353C8.82588 20.979 8.72636 21.1048 8.60187 21.2025L6.63 22.75L6.60062 22.7738C6.29652 23.0271 6.09244 23.3803 6.02488 23.7703C5.95732 24.1603 6.0307 24.5616 6.23187 24.9025L8.90125 29.5212C8.90432 29.5256 8.90704 29.5302 8.90938 29.535C9.11164 29.8711 9.42524 30.1258 9.79573 30.2549C10.1662 30.3839 10.5702 30.3791 10.9375 30.2412L10.9594 30.2331L13.2762 29.3C13.4226 29.2408 13.5809 29.2173 13.7382 29.2313C13.8954 29.2453 14.047 29.2965 14.1806 29.3806C14.3856 29.5102 14.594 29.6323 14.8056 29.7469C14.9429 29.8213 15.0607 29.9269 15.1496 30.0552C15.2385 30.1836 15.296 30.331 15.3175 30.4856L15.665 32.96L15.6725 33.005C15.7487 33.3889 15.9549 33.7347 16.2564 33.9843C16.5578 34.2339 16.9361 34.3718 17.3275 34.375H22.6725C23.0687 34.3737 23.4518 34.2327 23.7542 33.9767C24.0566 33.7207 24.259 33.3662 24.3256 32.9756L24.3312 32.9406L24.6794 30.4613C24.7011 30.3068 24.7586 30.1595 24.8474 30.0312C24.9361 29.903 25.0537 29.7972 25.1906 29.7225C25.4044 29.6075 25.6131 29.4856 25.8156 29.3587C25.949 29.2751 26.1002 29.2243 26.257 29.2105C26.4138 29.1967 26.5716 29.2203 26.7175 29.2794L29.0381 30.2138L29.06 30.2225C29.4278 30.3607 29.8325 30.3655 30.2034 30.236C30.5744 30.1064 30.8881 29.8509 31.09 29.5138C31.0925 29.509 31.0952 29.5044 31.0981 29.5L33.7675 24.8819C33.9693 24.5407 34.0432 24.1388 33.9757 23.7482C33.9083 23.3576 33.7039 23.0037 33.3994 22.75ZM24.9944 20.235C24.9489 21.2029 24.6231 22.1366 24.0567 22.9228C23.4904 23.709 22.7078 24.3136 21.8041 24.6633C20.9005 25.0129 19.9147 25.0924 18.9667 24.8922C18.0187 24.692 17.1492 24.2206 16.4641 23.5355C15.7791 22.8503 15.3078 21.9808 15.1077 21.0328C14.9076 20.0847 14.9872 19.099 15.337 18.1954C15.6867 17.2917 16.2915 16.5092 17.0777 15.9429C17.8639 15.3767 18.7978 15.051 19.7656 15.0056C20.4605 14.975 21.1541 15.0894 21.8024 15.3413C22.4506 15.5933 23.0394 15.9775 23.5312 16.4693C24.0229 16.9611 24.407 17.5499 24.6589 18.1982C24.9108 18.8465 25.0251 19.5402 24.9944 20.235Z" fill="white"/>
</svg>
