<svg width="22" height="22" viewBox="0 0 22 22" fill="none" xmlns="http://www.w3.org/2000/svg">
<path d="M11.7777 2.52232C11.5714 2.3161 11.2917 2.20026 11 2.20026C10.7083 2.20026 10.4286 2.3161 10.2223 2.52232L2.52228 10.2223C2.32191 10.4298 2.21104 10.7076 2.21354 10.9961C2.21605 11.2845 2.33173 11.5604 2.53568 11.7643C2.73963 11.9683 3.01553 12.084 3.30394 12.0865C3.59236 12.089 3.87022 11.9781 4.07768 11.7777L4.39998 11.4554V18.7C4.39998 18.9918 4.51588 19.2715 4.72217 19.4778C4.92846 19.6841 5.20825 19.8 5.49998 19.8H7.69998C7.99172 19.8 8.27151 19.6841 8.4778 19.4778C8.68409 19.2715 8.79998 18.9918 8.79998 18.7V16.5C8.79998 16.2083 8.91588 15.9285 9.12217 15.7222C9.32846 15.5159 9.60825 15.4 9.89998 15.4H12.1C12.3917 15.4 12.6715 15.5159 12.8778 15.7222C13.0841 15.9285 13.2 16.2083 13.2 16.5V18.7C13.2 18.9918 13.3159 19.2715 13.5222 19.4778C13.7285 19.6841 14.0082 19.8 14.3 19.8H16.5C16.7917 19.8 17.0715 19.6841 17.2778 19.4778C17.4841 19.2715 17.6 18.9918 17.6 18.7V11.4554L17.9223 11.7777C18.1297 11.9781 18.4076 12.089 18.696 12.0865C18.9844 12.084 19.2603 11.9683 19.4643 11.7643C19.6682 11.5604 19.7839 11.2845 19.7864 10.9961C19.7889 10.7076 19.6781 10.4298 19.4777 10.2223L11.7777 2.52232Z" fill="#124A82"/>
</svg>
