<svg width="334" height="56" viewBox="0 0 334 56" fill="none" xmlns="http://www.w3.org/2000/svg">
<rect y="46" width="227" height="3" fill="#0E265D"/>
<path d="M227 46H246.5H266V49H227V46Z" fill="white"/>
<ellipse cx="14.1932" cy="28.2978" rx="10.1932" ry="10.2978" fill="#FCF3E2"/>
<path fill-rule="evenodd" clip-rule="evenodd" d="M14.5215 37.0181C13.0757 37.0354 11.6341 36.8553 10.2361 36.4825C9.60671 36.3286 9.00698 36.0704 8.4612 35.7184C8.24454 35.5618 8.04617 35.381 7.86986 35.1793C7.70426 34.9843 7.62277 34.7304 7.64357 34.4744C7.68598 32.1937 9.26144 30.2358 11.4627 29.7282C11.6389 29.6716 11.8314 29.704 11.9799 29.8153C12.6735 30.2948 13.4941 30.5517 14.3345 30.5525C15.0412 30.5974 15.7486 30.4757 16.4007 30.1968C16.6865 30.0622 16.9515 29.8828 17.2282 29.7283C17.2751 29.6992 17.3298 29.6855 17.3847 29.6891C19.3294 30.039 20.875 31.536 21.303 33.4842C21.3598 33.7991 21.3998 34.1168 21.4228 34.4361C21.449 34.7745 21.3208 35.1064 21.0745 35.3374C20.7068 35.6958 20.2692 35.973 19.7897 36.1512C19.0029 36.468 18.1812 36.6883 17.3425 36.8074C16.4094 36.9554 15.466 37.0259 14.5215 37.0181L14.5215 37.0181Z" fill="#E9AE24"/>
<path fill-rule="evenodd" clip-rule="evenodd" d="M9.91946 22.1745C9.91343 22.2877 9.90867 22.3626 10.0199 22.4183C10.1017 22.4611 10.1551 22.5443 10.1605 22.6372C10.1659 22.7301 10.1224 22.819 10.0461 22.8712C9.99204 22.9014 9.96255 22.9628 9.97244 23.0244C10.0379 23.9036 10.0931 24.784 10.169 25.6622C10.1742 26.0421 10.0976 26.4186 9.94442 26.7656C9.93537 26.7922 9.90133 26.8091 9.87892 26.8318C9.85995 26.8113 9.83107 26.7943 9.82289 26.7704C9.66463 26.4031 9.58994 26.0046 9.60439 25.6043C9.68238 24.8367 9.71729 24.0642 9.7703 23.294C9.77461 23.2308 9.78324 23.1681 9.7884 23.105C9.81471 23.0078 9.77824 22.9044 9.69706 22.8459C9.62961 22.7892 9.59584 22.7014 9.60775 22.6135C9.61967 22.5257 9.67557 22.4502 9.75567 22.414C9.86813 22.3635 9.84961 22.2725 9.85477 22.1963C9.85477 22.1649 9.78322 22.1209 9.7371 22.0966C9.63409 22.0417 9.5216 22.0051 9.42248 21.9433C9.25783 21.8388 9.25654 21.682 9.42506 21.5841C9.57879 21.5003 9.73708 21.4255 9.89915 21.3598C11.2335 20.7752 12.5683 20.1914 13.9036 19.6086C14.3005 19.4262 14.7559 19.4253 15.1535 19.6059C16.6072 20.2408 18.0605 20.8759 19.5135 21.5114C19.629 21.5619 19.7635 21.615 19.7618 21.7648C19.7601 21.9146 19.6265 21.9646 19.5105 22.0156C19.0442 22.2202 18.5783 22.4253 18.1102 22.6252C18.0374 22.6455 17.9903 22.7166 17.9994 22.7924C18.005 23.206 17.9912 23.6197 18.0072 24.0333C18.0294 24.1995 18.0665 24.3633 18.1179 24.5227C18.3606 25.6285 18.1494 26.7865 17.5326 27.7322C17.0963 28.5066 16.4099 29.1061 15.5884 29.4304C14.5584 29.8377 13.3897 29.6321 12.5567 28.897C11.6272 28.1619 11.023 27.0854 10.8758 25.9022C10.7965 25.34 10.8484 24.7668 11.0271 24.2284C11.05 24.1568 11.0622 24.0821 11.0633 24.0068C11.0667 23.6014 11.0633 23.196 11.0667 22.7906C11.0778 22.7193 11.0348 22.6507 10.9663 22.6304C10.6237 22.4858 10.2815 22.3321 9.91946 22.1745Z" fill="#E9AE24"/>
<path d="M35.5327 33H34.3324L37.804 23.5455H38.9858L42.4574 33H41.2571L38.4318 25.0412H38.358L35.5327 33ZM35.9759 29.3068H40.8139V30.3224H35.9759V29.3068ZM46.4218 25.9091V26.8324H42.7471V25.9091H46.4218ZM43.8181 24.2102H44.9076V30.9688C44.9076 31.2765 44.9522 31.5073 45.0415 31.6612C45.1338 31.812 45.2507 31.9136 45.3923 31.9659C45.537 32.0152 45.6893 32.0398 45.8493 32.0398C45.9694 32.0398 46.0679 32.0336 46.1448 32.0213C46.2217 32.0059 46.2833 31.9936 46.3295 31.9844L46.551 32.9631C46.4772 32.9908 46.3741 33.0185 46.2417 33.0462C46.1094 33.0769 45.9417 33.0923 45.7385 33.0923C45.4308 33.0923 45.1292 33.0262 44.8337 32.8938C44.5413 32.7615 44.2982 32.5599 44.1043 32.2891C43.9135 32.0182 43.8181 31.6766 43.8181 31.2642V24.2102ZM51.1444 25.9091V26.8324H47.4697V25.9091H51.1444ZM48.5407 24.2102H49.6302V30.9688C49.6302 31.2765 49.6749 31.5073 49.7641 31.6612C49.8564 31.812 49.9734 31.9136 50.115 31.9659C50.2596 32.0152 50.412 32.0398 50.572 32.0398C50.692 32.0398 50.7905 32.0336 50.8675 32.0213C50.9444 32.0059 51.0059 31.9936 51.0521 31.9844L51.2737 32.9631C51.1998 32.9908 51.0967 33.0185 50.9644 33.0462C50.8321 33.0769 50.6643 33.0923 50.4612 33.0923C50.1534 33.0923 49.8518 33.0262 49.5564 32.8938C49.264 32.7615 49.0209 32.5599 48.827 32.2891C48.6362 32.0182 48.5407 31.6766 48.5407 31.2642V24.2102ZM55.6801 33.1477C54.9969 33.1477 54.4075 32.9969 53.912 32.6953C53.4196 32.3906 53.0395 31.9659 52.7718 31.4212C52.5071 30.8733 52.3747 30.2363 52.3747 29.5099C52.3747 28.7836 52.5071 28.1435 52.7718 27.5895C53.0395 27.0324 53.4119 26.5985 53.8889 26.2876C54.3691 25.9737 54.9292 25.8168 55.5693 25.8168C55.9387 25.8168 56.3034 25.8783 56.6634 26.0014C57.0235 26.1245 57.3513 26.3246 57.6468 26.6016C57.9422 26.8755 58.1776 27.2386 58.3531 27.6911C58.5285 28.1435 58.6162 28.7005 58.6162 29.3622V29.8239H53.1503V28.8821H57.5083C57.5083 28.482 57.4282 28.125 57.2682 27.8111C57.1112 27.4972 56.8866 27.2494 56.5942 27.0678C56.3049 26.8862 55.9633 26.7955 55.5693 26.7955C55.1354 26.7955 54.7599 26.9032 54.4429 27.1186C54.129 27.331 53.8874 27.608 53.7181 27.9496C53.5489 28.2912 53.4642 28.6574 53.4642 29.0483V29.6761C53.4642 30.2116 53.5566 30.6656 53.7412 31.038C53.9289 31.4073 54.189 31.6889 54.5214 31.8828C54.8538 32.0736 55.24 32.169 55.6801 32.169C55.9664 32.169 56.2249 32.129 56.4557 32.049C56.6896 31.9659 56.8912 31.8428 57.0605 31.6797C57.2297 31.5135 57.3605 31.3073 57.4529 31.0611L58.5054 31.3565C58.3946 31.7135 58.2084 32.0275 57.9468 32.2983C57.6852 32.5661 57.3621 32.7753 56.9774 32.9261C56.5927 33.0739 56.1602 33.1477 55.6801 33.1477ZM61.363 28.7344V33H60.2735V25.9091H61.3261V27.017H61.4184C61.5846 26.657 61.837 26.3677 62.1755 26.1491C62.5141 25.9276 62.9511 25.8168 63.4866 25.8168C63.9667 25.8168 64.3868 25.9152 64.7469 26.1122C65.107 26.3061 65.387 26.6016 65.5871 26.9986C65.7871 27.3925 65.8872 27.8911 65.8872 28.4943V33H64.7977V28.5682C64.7977 28.0111 64.653 27.5772 64.3637 27.2663C64.0744 26.9524 63.6774 26.7955 63.1727 26.7955C62.8249 26.7955 62.5141 26.8709 62.2401 27.0217C61.9693 27.1725 61.7554 27.3925 61.5985 27.6818C61.4415 27.9711 61.363 28.322 61.363 28.7344ZM70.5556 33.1477C69.9647 33.1477 69.443 32.9985 68.9906 32.6999C68.5382 32.3983 68.1842 31.9736 67.9288 31.4258C67.6734 30.8749 67.5456 30.224 67.5456 29.473C67.5456 28.7282 67.6734 28.0819 67.9288 27.5341C68.1842 26.9863 68.5397 26.5631 68.9952 26.2646C69.4507 25.966 69.977 25.8168 70.574 25.8168C71.0357 25.8168 71.4004 25.8937 71.6681 26.0476C71.939 26.1984 72.1452 26.3707 72.2868 26.5646C72.4314 26.7554 72.5437 26.9124 72.6238 27.0355H72.7161V23.5455H73.8056V33H72.753V31.9105H72.6238C72.5437 32.0398 72.4299 32.2029 72.2821 32.3999C72.1344 32.5937 71.9236 32.7676 71.6497 32.9215C71.3758 33.0723 71.0111 33.1477 70.5556 33.1477ZM70.7033 32.169C71.1403 32.169 71.5096 32.0552 71.8113 31.8274C72.1129 31.5966 72.3422 31.2781 72.4991 30.8718C72.6561 30.4625 72.7346 29.9901 72.7346 29.4545C72.7346 28.9252 72.6576 28.462 72.5037 28.065C72.3498 27.6649 72.1221 27.354 71.8205 27.1325C71.5189 26.9078 71.1465 26.7955 70.7033 26.7955C70.2417 26.7955 69.8569 26.9139 69.5492 27.1509C69.2445 27.3848 69.0152 27.7034 68.8613 28.1065C68.7105 28.5066 68.6351 28.956 68.6351 29.4545C68.6351 29.9593 68.7121 30.4179 68.8659 30.8303C69.0229 31.2396 69.2537 31.5658 69.5584 31.8089C69.8662 32.049 70.2478 32.169 70.7033 32.169ZM78.0389 33.1662C77.5895 33.1662 77.1818 33.0816 76.8155 32.9123C76.4493 32.7399 76.1584 32.4922 75.943 32.169C75.7276 31.8428 75.6199 31.4489 75.6199 30.9872C75.6199 30.581 75.6999 30.2517 75.8599 29.9993C76.0199 29.7438 76.2338 29.5438 76.5016 29.3991C76.7694 29.2545 77.0648 29.1468 77.388 29.076C77.7142 29.0021 78.042 28.9437 78.3713 28.9006C78.8021 28.8452 79.1515 28.8036 79.4192 28.7759C79.69 28.7451 79.887 28.6944 80.0101 28.6236C80.1363 28.5528 80.1994 28.4297 80.1994 28.2543V28.2173C80.1994 27.7618 80.0748 27.4079 79.8255 27.1555C79.5792 26.9032 79.2053 26.777 78.7037 26.777C78.1835 26.777 77.7757 26.8909 77.4803 27.1186C77.1848 27.3464 76.9771 27.5895 76.8571 27.848L75.823 27.4787C76.0076 27.0478 76.2538 26.7124 76.5616 26.4723C76.8725 26.2292 77.211 26.0599 77.5772 25.9645C77.9466 25.866 78.3097 25.8168 78.6667 25.8168C78.8945 25.8168 79.1561 25.8445 79.4515 25.8999C79.7501 25.9522 80.0378 26.0614 80.3148 26.2276C80.5949 26.3938 80.8272 26.6446 81.0119 26.9801C81.1966 27.3156 81.2889 27.7649 81.2889 28.3281V33H80.1994V32.0398H80.144C80.0701 32.1937 79.947 32.3583 79.7747 32.5337C79.6023 32.7092 79.373 32.8584 79.0868 32.9815C78.8006 33.1046 78.4513 33.1662 78.0389 33.1662ZM78.2051 32.1875C78.6359 32.1875 78.9991 32.1029 79.2946 31.9336C79.5931 31.7643 79.8178 31.5458 79.9686 31.2781C80.1225 31.0103 80.1994 30.7287 80.1994 30.4332V29.4361C80.1532 29.4915 80.0517 29.5423 79.8947 29.5884C79.7408 29.6315 79.5623 29.67 79.3592 29.7038C79.1592 29.7346 78.9637 29.7623 78.7729 29.7869C78.5852 29.8085 78.4328 29.8269 78.3159 29.8423C78.0327 29.8793 77.7681 29.9393 77.5218 30.0224C77.2787 30.1024 77.0817 30.224 76.9309 30.3871C76.7832 30.5471 76.7093 30.7656 76.7093 31.0426C76.7093 31.4212 76.8494 31.7074 77.1294 31.9013C77.4126 32.0921 77.7711 32.1875 78.2051 32.1875ZM84.3669 28.7344V33H83.2774V25.9091H84.33V27.017H84.4223C84.5885 26.657 84.8409 26.3677 85.1794 26.1491C85.518 25.9276 85.955 25.8168 86.4905 25.8168C86.9706 25.8168 87.3907 25.9152 87.7508 26.1122C88.1109 26.3061 88.391 26.6016 88.591 26.9986C88.791 27.3925 88.8911 27.8911 88.8911 28.4943V33H87.8016V28.5682C87.8016 28.0111 87.6569 27.5772 87.3676 27.2663C87.0783 26.9524 86.6813 26.7955 86.1766 26.7955C85.8288 26.7955 85.518 26.8709 85.2441 27.0217C84.9732 27.1725 84.7593 27.3925 84.6024 27.6818C84.4454 27.9711 84.3669 28.322 84.3669 28.7344ZM93.7626 33.1477C93.0978 33.1477 92.5254 32.9908 92.0453 32.6768C91.5652 32.3629 91.1958 31.9305 90.9373 31.3796C90.6788 30.8287 90.5495 30.1993 90.5495 29.4915C90.5495 28.7713 90.6819 28.1358 90.9466 27.5849C91.2143 27.0309 91.5867 26.5985 92.0637 26.2876C92.5439 25.9737 93.104 25.8168 93.7441 25.8168C94.2427 25.8168 94.6921 25.9091 95.0922 26.0938C95.4922 26.2784 95.82 26.5369 96.0755 26.8693C96.3309 27.2017 96.4894 27.5895 96.551 28.0327H95.4615C95.3784 27.7095 95.1937 27.4233 94.9075 27.174C94.6243 26.9216 94.2427 26.7955 93.7626 26.7955C93.3379 26.7955 92.9655 26.9062 92.6454 27.1278C92.3284 27.3464 92.0807 27.6557 91.9022 28.0558C91.7267 28.4528 91.639 28.919 91.639 29.4545C91.639 30.0024 91.7252 30.4794 91.8975 30.8857C92.073 31.2919 92.3192 31.6074 92.6362 31.832C92.9563 32.0567 93.3317 32.169 93.7626 32.169C94.0458 32.169 94.3027 32.1198 94.5336 32.0213C94.7644 31.9228 94.9598 31.7812 95.1199 31.5966C95.2799 31.4119 95.3938 31.1903 95.4615 30.9318H96.551C96.4894 31.3504 96.3371 31.7274 96.0939 32.0629C95.8539 32.3952 95.5353 32.6599 95.1383 32.8569C94.7444 33.0508 94.2858 33.1477 93.7626 33.1477ZM101.117 33.1477C100.433 33.1477 99.844 32.9969 99.3485 32.6953C98.8561 32.3906 98.476 31.9659 98.2083 31.4212C97.9436 30.8733 97.8113 30.2363 97.8113 29.5099C97.8113 28.7836 97.9436 28.1435 98.2083 27.5895C98.476 27.0324 98.8484 26.5985 99.3255 26.2876C99.8056 25.9737 100.366 25.8168 101.006 25.8168C101.375 25.8168 101.74 25.8783 102.1 26.0014C102.46 26.1245 102.788 26.3246 103.083 26.6016C103.379 26.8755 103.614 27.2386 103.79 27.6911C103.965 28.1435 104.053 28.7005 104.053 29.3622V29.8239H98.5868V28.8821H102.945C102.945 28.482 102.865 28.125 102.705 27.8111C102.548 27.4972 102.323 27.2494 102.031 27.0678C101.741 26.8862 101.4 26.7955 101.006 26.7955C100.572 26.7955 100.196 26.9032 99.8794 27.1186C99.5655 27.331 99.3239 27.608 99.1547 27.9496C98.9854 28.2912 98.9007 28.6574 98.9007 29.0483V29.6761C98.9007 30.2116 98.9931 30.6656 99.1777 31.038C99.3655 31.4073 99.6255 31.6889 99.9579 31.8828C100.29 32.0736 100.677 32.169 101.117 32.169C101.403 32.169 101.661 32.129 101.892 32.049C102.126 31.9659 102.328 31.8428 102.497 31.6797C102.666 31.5135 102.797 31.3073 102.889 31.0611L103.942 31.3565C103.831 31.7135 103.645 32.0275 103.383 32.2983C103.122 32.5661 102.799 32.7753 102.414 32.9261C102.029 33.0739 101.597 33.1477 101.117 33.1477Z" fill="white"/>
<path d="M230.157 32.0994C229.648 32.0994 229.198 32.0118 228.808 31.8366C228.419 31.6615 228.115 31.42 227.895 31.1122C227.675 30.8045 227.566 30.4541 227.568 30.0611C227.566 29.7533 227.629 29.4704 227.756 29.2124C227.887 28.9519 228.063 28.7353 228.286 28.5625C228.508 28.3873 228.757 28.276 229.031 28.2287V28.1861C228.669 28.0985 228.379 27.9044 228.161 27.6037C227.943 27.303 227.836 26.9574 227.838 26.5668C227.836 26.1951 227.934 25.8636 228.133 25.5724C228.334 25.2789 228.61 25.0481 228.96 24.88C229.311 24.7119 229.71 24.6278 230.157 24.6278C230.6 24.6278 230.995 24.7131 231.343 24.8835C231.693 25.0516 231.969 25.2824 232.17 25.576C232.372 25.8672 232.473 26.1974 232.476 26.5668C232.473 26.9574 232.362 27.303 232.142 27.6037C231.922 27.9044 231.635 28.0985 231.283 28.1861V28.2287C231.555 28.276 231.8 28.3873 232.018 28.5625C232.238 28.7353 232.413 28.9519 232.543 29.2124C232.676 29.4704 232.743 29.7533 232.746 30.0611C232.743 30.4541 232.632 30.8045 232.412 31.1122C232.192 31.42 231.886 31.6615 231.496 31.8366C231.107 32.0118 230.661 32.0994 230.157 32.0994ZM230.157 31.201C230.458 31.201 230.718 31.1513 230.938 31.0518C231.158 30.95 231.329 30.8092 231.45 30.6293C231.57 30.447 231.632 30.2339 231.634 29.9901C231.632 29.7367 231.566 29.513 231.435 29.3189C231.308 29.1248 231.134 28.9721 230.913 28.8608C230.693 28.7495 230.441 28.6939 230.157 28.6939C229.871 28.6939 229.616 28.7495 229.393 28.8608C229.171 28.9721 228.996 29.1248 228.868 29.3189C228.74 29.513 228.677 29.7367 228.68 29.9901C228.677 30.2339 228.735 30.447 228.854 30.6293C228.974 30.8092 229.146 30.95 229.369 31.0518C229.591 31.1513 229.854 31.201 230.157 31.201ZM230.157 27.8168C230.398 27.8168 230.613 27.7682 230.8 27.6712C230.987 27.5741 231.134 27.4392 231.24 27.2663C231.349 27.0935 231.405 26.8911 231.407 26.6591C231.405 26.4318 231.35 26.233 231.244 26.0625C231.139 25.892 230.994 25.7607 230.807 25.6683C230.62 25.5736 230.403 25.5263 230.157 25.5263C229.906 25.5263 229.686 25.5736 229.496 25.6683C229.309 25.7607 229.164 25.892 229.06 26.0625C228.955 26.233 228.905 26.4318 228.907 26.6591C228.905 26.8911 228.957 27.0935 229.063 27.2663C229.17 27.4392 229.317 27.5741 229.504 27.6712C229.693 27.7682 229.911 27.8168 230.157 27.8168ZM236.55 32.1207C235.989 32.1184 235.509 31.9704 235.112 31.6768C234.714 31.3833 234.41 30.956 234.199 30.3949C233.988 29.8338 233.883 29.1579 233.883 28.3672C233.883 27.5788 233.988 26.9053 234.199 26.3466C234.412 25.7879 234.718 25.3617 235.115 25.0682C235.515 24.7746 235.994 24.6278 236.55 24.6278C237.106 24.6278 237.583 24.7758 237.981 25.0717C238.379 25.3653 238.683 25.7914 238.894 26.3501C239.107 26.9065 239.213 27.5788 239.213 28.3672C239.213 29.1603 239.108 29.8374 238.897 30.3984C238.686 30.9571 238.382 31.3845 237.985 31.6804C237.587 31.974 237.109 32.1207 236.55 32.1207ZM236.55 31.1726C237.042 31.1726 237.427 30.9323 237.704 30.4517C237.983 29.9711 238.123 29.2763 238.123 28.3672C238.123 27.7635 238.059 27.2533 237.931 26.8366C237.806 26.4176 237.625 26.1004 237.388 25.8849C237.154 25.6671 236.874 25.5582 236.55 25.5582C236.06 25.5582 235.675 25.7997 235.396 26.2827C235.116 26.7656 234.976 27.4605 234.973 28.3672C234.973 28.9732 235.036 29.4858 235.161 29.9048C235.289 30.3215 235.47 30.6375 235.705 30.853C235.939 31.0661 236.221 31.1726 236.55 31.1726ZM240.923 32.0675C240.729 32.0675 240.562 31.9988 240.422 31.8615C240.283 31.7218 240.213 31.5537 240.213 31.3572C240.213 31.1631 240.283 30.9974 240.422 30.8601C240.562 30.7204 240.729 30.6506 240.923 30.6506C241.117 30.6506 241.284 30.7204 241.424 30.8601C241.564 30.9974 241.633 31.1631 241.633 31.3572C241.633 31.4875 241.6 31.607 241.534 31.7159C241.47 31.8224 241.385 31.9077 241.278 31.9716C241.172 32.0355 241.053 32.0675 240.923 32.0675ZM245.31 32.0994C244.822 32.0994 244.386 32.0154 244.003 31.8473C243.622 31.6792 243.32 31.446 243.097 31.1477C242.877 30.8471 242.759 30.4991 242.742 30.1037H243.857C243.871 30.3191 243.944 30.5062 244.074 30.6648C244.206 30.821 244.379 30.9418 244.592 31.027C244.805 31.1122 245.042 31.1548 245.303 31.1548C245.589 31.1548 245.842 31.1051 246.062 31.0057C246.285 30.9062 246.459 30.7678 246.585 30.5902C246.71 30.4103 246.773 30.2031 246.773 29.9688C246.773 29.7249 246.71 29.5107 246.585 29.326C246.461 29.139 246.28 28.9922 246.041 28.8857C245.804 28.7791 245.518 28.7259 245.182 28.7259H244.567V27.831H245.182C245.452 27.831 245.688 27.7824 245.892 27.6854C246.098 27.5883 246.259 27.4534 246.375 27.2805C246.491 27.1054 246.549 26.9006 246.549 26.6662C246.549 26.4413 246.498 26.246 246.396 26.0803C246.297 25.9122 246.155 25.7808 245.97 25.6861C245.788 25.5914 245.572 25.544 245.324 25.544C245.087 25.544 244.866 25.5878 244.66 25.6754C244.456 25.7607 244.29 25.8838 244.163 26.0447C244.035 26.2034 243.966 26.3939 243.957 26.6165H242.895C242.907 26.2235 243.023 25.8778 243.243 25.5795C243.465 25.2812 243.759 25.0481 244.124 24.88C244.488 24.7119 244.893 24.6278 245.338 24.6278C245.804 24.6278 246.207 24.719 246.545 24.9013C246.886 25.0812 247.149 25.3215 247.334 25.6222C247.521 25.9228 247.613 26.2519 247.611 26.6094C247.613 27.0166 247.5 27.3622 247.27 27.6463C247.043 27.9304 246.74 28.121 246.361 28.218V28.2749C246.844 28.3482 247.218 28.54 247.483 28.8501C247.75 29.1603 247.883 29.545 247.881 30.0043C247.883 30.4044 247.772 30.763 247.547 31.0803C247.324 31.3975 247.02 31.6473 246.634 31.8295C246.248 32.0095 245.807 32.0994 245.31 32.0994ZM251.641 24.6278C251.966 24.6302 252.285 24.6894 252.6 24.8054C252.915 24.9214 253.199 25.1108 253.452 25.3736C253.708 25.6364 253.912 25.9915 254.063 26.4389C254.217 26.884 254.295 27.438 254.298 28.1009C254.298 28.7377 254.234 29.3047 254.106 29.8018C253.978 30.2966 253.795 30.7145 253.555 31.0554C253.319 31.3963 253.031 31.6555 252.692 31.8331C252.354 32.0107 251.973 32.0994 251.549 32.0994C251.116 32.0994 250.731 32.0142 250.395 31.8438C250.059 31.6733 249.785 31.4377 249.575 31.1371C249.364 30.834 249.232 30.486 249.18 30.093H250.263C250.335 30.4055 250.479 30.6589 250.697 30.853C250.917 31.0447 251.201 31.1406 251.549 31.1406C252.082 31.1406 252.497 30.9086 252.795 30.4446C253.094 29.9782 253.244 29.3272 253.246 28.4915H253.19C253.067 28.6951 252.913 28.8703 252.728 29.017C252.546 29.1638 252.341 29.2775 252.114 29.358C251.886 29.4384 251.644 29.4787 251.386 29.4787C250.967 29.4787 250.585 29.3757 250.242 29.1697C249.899 28.9638 249.625 28.6809 249.422 28.321C249.218 27.9612 249.116 27.5504 249.116 27.0888C249.116 26.6295 249.221 26.2128 249.429 25.8388C249.64 25.4647 249.933 25.1688 250.31 24.951C250.688 24.7308 251.132 24.6231 251.641 24.6278ZM251.645 25.5511C251.368 25.5511 251.118 25.6198 250.896 25.7571C250.675 25.892 250.501 26.0755 250.374 26.3075C250.246 26.5372 250.182 26.7929 250.182 27.0746C250.182 27.3563 250.243 27.612 250.366 27.8416C250.492 28.0689 250.662 28.25 250.878 28.3849C251.096 28.5175 251.344 28.5838 251.624 28.5838C251.832 28.5838 252.026 28.5436 252.206 28.4631C252.386 28.3826 252.543 28.2713 252.678 28.1293C252.813 27.9848 252.919 27.8215 252.994 27.6392C253.07 27.4569 253.108 27.2652 253.108 27.0639C253.108 26.7964 253.044 26.5478 252.916 26.3182C252.791 26.0885 252.618 25.9039 252.398 25.7642C252.178 25.6222 251.927 25.5511 251.645 25.5511ZM262.023 30.6364V30.2528C262.023 29.9782 262.08 29.7273 262.194 29.5C262.31 29.2704 262.478 29.0869 262.698 28.9496C262.92 28.8099 263.189 28.7401 263.504 28.7401C263.826 28.7401 264.096 28.8087 264.314 28.946C264.531 29.0833 264.696 29.2668 264.807 29.4964C264.921 29.7261 264.978 29.9782 264.978 30.2528V30.6364C264.978 30.911 264.921 31.1631 264.807 31.3928C264.694 31.62 264.527 31.8035 264.306 31.9432C264.089 32.0805 263.821 32.1491 263.504 32.1491C263.184 32.1491 262.914 32.0805 262.694 31.9432C262.474 31.8035 262.307 31.62 262.194 31.3928C262.08 31.1631 262.023 30.911 262.023 30.6364ZM262.85 30.2528V30.6364C262.85 30.84 262.899 31.0246 262.996 31.1903C263.093 31.3561 263.262 31.4389 263.504 31.4389C263.743 31.4389 263.91 31.3561 264.005 31.1903C264.099 31.0246 264.147 30.84 264.147 30.6364V30.2528C264.147 30.0492 264.1 29.8646 264.008 29.6989C263.918 29.5331 263.75 29.4503 263.504 29.4503C263.267 29.4503 263.099 29.5331 263 29.6989C262.9 29.8646 262.85 30.0492 262.85 30.2528ZM258.365 26.4744V26.0909C258.365 25.8163 258.422 25.5642 258.536 25.3345C258.652 25.1049 258.82 24.9214 259.04 24.7841C259.263 24.6468 259.531 24.5781 259.846 24.5781C260.168 24.5781 260.438 24.6468 260.656 24.7841C260.874 24.9214 261.038 25.1049 261.15 25.3345C261.261 25.5642 261.316 25.8163 261.316 26.0909V26.4744C261.316 26.7491 261.26 27.0012 261.146 27.2308C261.035 27.4581 260.869 27.6416 260.649 27.7812C260.431 27.9186 260.163 27.9872 259.846 27.9872C259.524 27.9872 259.253 27.9186 259.033 27.7812C258.815 27.6416 258.65 27.4581 258.536 27.2308C258.422 27.0012 258.365 26.7491 258.365 26.4744ZM259.196 26.0909V26.4744C259.196 26.678 259.244 26.8627 259.338 27.0284C259.435 27.1941 259.605 27.277 259.846 27.277C260.083 27.277 260.249 27.1941 260.343 27.0284C260.44 26.8627 260.489 26.678 260.489 26.4744V26.0909C260.489 25.8873 260.443 25.7027 260.35 25.5369C260.258 25.3712 260.09 25.2884 259.846 25.2884C259.609 25.2884 259.441 25.3712 259.342 25.5369C259.245 25.7027 259.196 25.8873 259.196 26.0909ZM258.703 32L263.703 24.7273H264.551L259.551 32H258.703Z" fill="white"/>
</svg>
