<svg width="40" height="40" viewBox="0 0 40 40" fill="none" xmlns="http://www.w3.org/2000/svg">
<rect width="40" height="40" rx="20" fill="#0057FF"/>
<g clip-path="url(#clip0_8_792)">
<path d="M15.1 24.2C14.9954 24.2 14.8908 24.2153 14.7911 24.2477C14.2241 24.4319 13.6278 24.55 13 24.55C12.3722 24.55 11.7758 24.4319 11.2084 24.2477C11.1087 24.2153 11.0045 24.2 10.9 24.2C8.18484 24.2 5.98553 26.4085 5.99996 29.1271C6.00609 30.276 6.95065 31.2 8.09996 31.2H17.9C19.0493 31.2 19.9938 30.276 20 29.1271C20.0144 26.4085 17.8151 24.2 15.1 24.2ZM13 22.8C15.3196 22.8 17.2 20.9196 17.2 18.6C17.2 16.2804 15.3196 14.4 13 14.4C10.6803 14.4 8.79996 16.2804 8.79996 18.6C8.79996 20.9196 10.6803 22.8 13 22.8ZM31.9 8.8H15.1C13.9419 8.8 13 9.77344 13 10.9696V13C14.0246 13 14.9731 13.2966 15.8 13.7788V11.6H31.2V24.2H28.4V21.4H22.8V24.2H19.4645C20.3001 24.9302 20.9135 25.8944 21.2009 27H31.9C33.058 27 34 26.0266 34 24.8304V10.9696C34 9.77344 33.058 8.8 31.9 8.8Z" fill="white"/>
</g>
<defs>
<clipPath id="clip0_8_792">
<rect width="28" height="22.4" fill="white" transform="translate(6 8.8)"/>
</clipPath>
</defs>
</svg>
