<svg width="40" height="40" viewBox="0 0 40 40" fill="none" xmlns="http://www.w3.org/2000/svg">
<rect width="40" height="40" rx="20" fill="#0057FF"/>
<g clip-path="url(#clip0_8_792)">
<path d="M15.1001 24.2C14.9955 24.2 14.8909 24.2153 14.7912 24.2477C14.2242 24.4319 13.6279 24.55 13.0001 24.55C12.3723 24.55 11.7759 24.4319 11.2085 24.2477C11.1088 24.2153 11.0046 24.2 10.9001 24.2C8.18495 24.2 5.98563 26.4085 6.00007 29.1271C6.0062 30.276 6.95076 31.2 8.10007 31.2H17.9001C19.0494 31.2 19.9939 30.276 20.0001 29.1271C20.0145 26.4085 17.8152 24.2 15.1001 24.2ZM13.0001 22.8C15.3197 22.8 17.2001 20.9196 17.2001 18.6C17.2001 16.2804 15.3197 14.4 13.0001 14.4C10.6804 14.4 8.80007 16.2804 8.80007 18.6C8.80007 20.9196 10.6804 22.8 13.0001 22.8ZM31.9001 8.8H15.1001C13.942 8.8 13.0001 9.77344 13.0001 10.9696V13C14.0247 13 14.9732 13.2966 15.8001 13.7788V11.6H31.2001V24.2H28.4001V21.4H22.8001V24.2H19.4646C20.3002 24.9302 20.9136 25.8944 21.201 27H31.9001C33.0581 27 34.0001 26.0266 34.0001 24.8304V10.9696C34.0001 9.77344 33.0581 8.8 31.9001 8.8Z" fill="white"/>
</g>
<defs>
<clipPath id="clip0_8_792">
<rect width="28" height="22.4" fill="white" transform="translate(6 8.8)"/>
</clipPath>
</defs>
</svg>
