<svg width="40" height="40" viewBox="0 0 40 40" fill="none" xmlns="http://www.w3.org/2000/svg">
<rect width="40" height="40" rx="20" fill="#0057FF"/>
<g clip-path="url(#clip0_8_800)">
<path d="M30 14.1667V16.6667H10V14.1667C10 12.7883 11.1217 11.6667 12.5 11.6667H15V10H16.6667V11.6667H23.3333V10H25V11.6667H27.5C28.8783 11.6667 30 12.7883 30 14.1667ZM30 24.1667C30 27.3833 27.3825 30 24.1667 30C20.9508 30 18.3333 27.3833 18.3333 24.1667C18.3333 20.95 20.9508 18.3333 24.1667 18.3333C27.3825 18.3333 30 20.95 30 24.1667ZM26.4225 25.2442L25 23.8217V21.6667H23.3333V24.5117L25.2442 26.4225L26.4225 25.2442ZM16.6667 24.1667C16.6667 21.8092 17.7567 19.7083 19.4575 18.3333H10V30H19.4575C17.7567 28.625 16.6667 26.5242 16.6667 24.1667Z" fill="white"/>
</g>
<defs>
<clipPath id="clip0_8_800">
<rect width="20" height="20" fill="white" transform="translate(10 10)"/>
</clipPath>
</defs>
</svg>
