<svg width="41" height="40" viewBox="0 0 41 40" fill="none" xmlns="http://www.w3.org/2000/svg">
<g clip-path="url(#clip0_171_101)">
<g filter="url(#filter0_d_171_101)">
<path d="M20.5 17.3333C23.4455 17.3333 25.8333 14.9455 25.8333 12C25.8333 9.05447 23.4455 6.66666 20.5 6.66666C17.5545 6.66666 15.1667 9.05447 15.1667 12C15.1667 14.9455 17.5545 17.3333 20.5 17.3333Z" fill="white"/>
</g>
<g filter="url(#filter1_d_171_101)">
<path d="M31.1667 27.3333C31.1667 30.6467 31.1667 33.3333 20.5 33.3333C9.83333 33.3333 9.83333 30.6467 9.83333 27.3333C9.83333 24.02 14.6093 21.3333 20.5 21.3333C26.3907 21.3333 31.1667 24.02 31.1667 27.3333Z" fill="white"/>
</g>
</g>
<defs>
<filter id="filter0_d_171_101" x="11.1667" y="6.66666" width="18.6667" height="18.6667" filterUnits="userSpaceOnUse" color-interpolation-filters="sRGB">
<feFlood flood-opacity="0" result="BackgroundImageFix"/>
<feColorMatrix in="SourceAlpha" type="matrix" values="0 0 0 0 0 0 0 0 0 0 0 0 0 0 0 0 0 0 127 0" result="hardAlpha"/>
<feOffset dy="4"/>
<feGaussianBlur stdDeviation="2"/>
<feComposite in2="hardAlpha" operator="out"/>
<feColorMatrix type="matrix" values="0 0 0 0 0 0 0 0 0 0 0 0 0 0 0 0 0 0 0.25 0"/>
<feBlend mode="normal" in2="BackgroundImageFix" result="effect1_dropShadow_171_101"/>
<feBlend mode="normal" in="SourceGraphic" in2="effect1_dropShadow_171_101" result="shape"/>
</filter>
<filter id="filter1_d_171_101" x="5.83333" y="21.3333" width="29.3333" height="20" filterUnits="userSpaceOnUse" color-interpolation-filters="sRGB">
<feFlood flood-opacity="0" result="BackgroundImageFix"/>
<feColorMatrix in="SourceAlpha" type="matrix" values="0 0 0 0 0 0 0 0 0 0 0 0 0 0 0 0 0 0 127 0" result="hardAlpha"/>
<feOffset dy="4"/>
<feGaussianBlur stdDeviation="2"/>
<feComposite in2="hardAlpha" operator="out"/>
<feColorMatrix type="matrix" values="0 0 0 0 0 0 0 0 0 0 0 0 0 0 0 0 0 0 0.25 0"/>
<feBlend mode="normal" in2="BackgroundImageFix" result="effect1_dropShadow_171_101"/>
<feBlend mode="normal" in="SourceGraphic" in2="effect1_dropShadow_171_101" result="shape"/>
</filter>
<clipPath id="clip0_171_101">
<rect width="32" height="32" fill="white" transform="translate(4.5 4)"/>
</clipPath>
</defs>
</svg>
