<svg width="24" height="16" viewBox="0 0 24 16" fill="none" xmlns="http://www.w3.org/2000/svg">
<path fill-rule="evenodd" clip-rule="evenodd" d="M12.0262 15.9995C9.40928 16.0195 6.85116 15.2414 4.70829 13.7737C2.58099 12.3548 0.940314 10.3429 0 7.99997C0.940874 5.65706 2.58139 3.64486 4.70829 2.22496C6.8517 0.758446 9.40954 -0.0190867 12.0262 0.000443386C14.6351 -0.0212936 17.1852 0.756708 19.3179 2.22496C21.433 3.65082 23.0635 5.66193 24 7.99997C23.0642 10.3384 21.4335 12.3497 19.3179 13.775C17.1856 15.2439 14.6352 16.022 12.0262 15.9995H12.0262ZM12.0262 2.6499C10.5717 2.63337 9.17434 3.20279 8.16288 4.2242C7.11636 5.21231 6.53298 6.57818 6.55022 7.99997C6.53314 9.42173 7.11648 10.7875 8.16288 11.7757C9.17432 12.7972 10.5717 13.3666 12.0262 13.3501C13.4736 13.3692 14.8638 12.7988 15.8633 11.7757C16.8955 10.7802 17.4683 9.41694 17.4498 7.99997C17.4685 6.58295 16.8957 5.21961 15.8633 4.22418C14.8638 3.20117 13.4736 2.6308 12.0262 2.64988V2.6499ZM12 11.1998C11.1338 11.2149 10.2996 10.8801 9.69431 10.2744C9.07359 9.67495 8.73251 8.85248 8.75108 7.99997C8.73237 7.14741 9.07347 6.3249 9.69433 5.72554C10.2996 5.11989 11.1338 4.78508 12 4.80016C12.8724 4.7888 13.7125 5.12255 14.3293 5.72556C14.9652 6.31707 15.3179 7.14223 15.3013 7.99997C15.3177 8.8577 14.9651 9.68281 14.3292 10.2744C13.7125 10.8774 12.8724 11.2112 12 11.1998Z" fill="#C6CBD4"/>
</svg>
