<svg width="40" height="40" viewBox="0 0 40 40" fill="none" xmlns="http://www.w3.org/2000/svg">
<rect width="40" height="40" rx="20" fill="#0057FF"/>
<path d="M15.1757 12.4435C8.69874 12.4435 6 13.3211 6 14.0293V25.9372C6 26.6292 8.69874 27.5565 15.1757 27.5565C21.6527 27.5565 24.3515 26.6788 24.3515 25.9707V14.0628C24.3515 13.3708 21.6527 12.4435 15.1757 12.4435ZM33.3922 12.477C33.2108 12.4842 33.0352 12.543 32.886 12.6465L25.8692 17.1663C25.5994 17.3693 25.431 17.7039 25.431 18.0439V21.956C25.431 22.2961 25.5994 22.6296 25.8692 22.8337L32.886 27.3546C33.0759 27.4982 34 27.9483 34 26.477V13.523C34 12.6734 33.7075 12.464 33.3922 12.477Z" fill="white"/>
</svg>
